<?xml version="1.0" encoding="UTF-8" standalone="no"?>
<svg width="20px" height="26px" viewBox="0 0 20 26" version="1.1" xmlns="http://www.w3.org/2000/svg" xmlns:xlink="http://www.w3.org/1999/xlink" xmlns:sketch="http://www.bohemiancoding.com/sketch/ns">
    <!-- Generator: Sketch 3.3.3 (12072) - http://www.bohemiancoding.com/sketch -->
    <title>2Over</title>
    <desc>Created with Sketch.</desc>
    <defs></defs>
    <g id="Page-1" stroke="none" stroke-width="1" fill="none" fill-rule="evenodd" sketch:type="MSPage">
        <path d="M0,0 L20,0 L20,26 L0,26 L0,0 Z M14.5507812,16.7060547 L14.5507812,19 L5.89355469,19 C5.98730516,18.1328082 6.26855234,17.311039 6.73730469,16.534668 C7.20605703,15.7582969 8.13182902,14.728522 9.51464844,13.4453125 C10.6279353,12.4081979 11.3105456,11.70508 11.5625,11.3359375 C11.9023454,10.8261693 12.0722656,10.3222681 12.0722656,9.82421875 C12.0722656,9.27343475 11.9243179,8.85009914 11.628418,8.55419922 C11.3325181,8.2582993 10.9238307,8.11035156 10.4023438,8.11035156 C9.88671617,8.11035156 9.47656402,8.26562345 9.171875,8.57617188 C8.86718598,8.8867203 8.69140648,9.40234015 8.64453125,10.1230469 L6.18359375,9.87695312 C6.33007886,8.51757133 6.7900352,7.54199515 7.56347656,6.95019531 C8.33691793,6.35839548 9.30370514,6.0625 10.4638672,6.0625 C11.7353579,6.0625 12.7343714,6.40527001 13.4609375,7.09082031 C14.1875036,7.77637062 14.5507812,8.62890115 14.5507812,9.6484375 C14.5507812,10.2285185 14.4467784,10.7807591 14.2387695,11.3051758 C14.0307607,11.8295925 13.7011741,12.3789034 13.25,12.953125 C12.9511704,13.3339863 12.4121133,13.8818324 11.6328125,14.5966797 C10.8535117,15.311527 10.3598643,15.7861316 10.1518555,16.0205078 C9.94384662,16.254884 9.77539127,16.4833973 9.64648438,16.7060547 L14.5507812,16.7060547 Z" id="Rectangle-1-Copy-9" fill="#82B9F9" sketch:type="MSShapeGroup"></path>
    </g>
</svg>