<?xml version="1.0" encoding="UTF-8" standalone="no"?>
<svg width="20px" height="26px" viewBox="0 0 20 26" version="1.1" xmlns="http://www.w3.org/2000/svg" xmlns:xlink="http://www.w3.org/1999/xlink" xmlns:sketch="http://www.bohemiancoding.com/sketch/ns">
    <!-- Generator: Sketch 3.3.3 (12072) - http://www.bohemiancoding.com/sketch -->
    <title>3Over</title>
    <desc>Created with Sketch.</desc>
    <defs></defs>
    <g id="Page-1" stroke="none" stroke-width="1" fill="none" fill-rule="evenodd" sketch:type="MSPage">
        <path d="M0,0 L20,0 L20,26 L0,26 L0,0 Z M5.12207031,15.5810547 L7.51269531,15.2910156 C7.58886757,15.9003937 7.79394364,16.3662093 8.12792969,16.6884766 C8.46191573,17.0107438 8.86620856,17.171875 9.34082031,17.171875 C9.85058849,17.171875 10.2797834,16.9785176 10.628418,16.5917969 C10.9770525,16.2050762 11.1513672,15.683597 11.1513672,15.0273438 C11.1513672,14.4062469 10.9843767,13.9140643 10.6503906,13.5507812 C10.3164046,13.1874982 9.90918209,13.0058594 9.42871094,13.0058594 C9.11230311,13.0058594 8.7343772,13.0673822 8.29492188,13.1904297 L8.56738281,11.1777344 C9.2353549,11.1953126 9.74511543,11.0502945 10.0966797,10.7426758 C10.4482439,10.4350571 10.6240234,10.0263697 10.6240234,9.51660156 C10.6240234,9.08300564 10.4951185,8.73730598 10.2373047,8.47949219 C9.9794909,8.2216784 9.63672089,8.09277344 9.20898438,8.09277344 C8.78710727,8.09277344 8.42675931,8.23925635 8.12792969,8.53222656 C7.82910007,8.82519678 7.64746126,9.25292687 7.58300781,9.81542969 L5.30664062,9.42871094 C5.46484454,8.64941017 5.70361168,8.0268578 6.02294922,7.56103516 C6.34228675,7.09521251 6.7875948,6.72900524 7.35888672,6.46240234 C7.93017864,6.19579945 8.57030896,6.0625 9.27929688,6.0625 C10.4921936,6.0625 11.4648401,6.44921488 12.1972656,7.22265625 C12.8007843,7.85547191 13.1025391,8.57030852 13.1025391,9.3671875 C13.1025391,10.4980525 12.4843812,11.4003873 11.2480469,12.0742188 C11.9863318,12.2324227 12.5766579,12.5869113 13.019043,13.1376953 C13.461428,13.6884793 13.6826172,14.3535117 13.6826172,15.1328125 C13.6826172,16.2636775 13.2695354,17.2275351 12.4433594,18.0244141 C11.6171834,18.821293 10.5888733,19.2197266 9.35839844,19.2197266 C8.19237698,19.2197266 7.22558978,18.8842807 6.45800781,18.2133789 C5.69042585,17.5424771 5.2451178,16.6650445 5.12207031,15.5810547 Z" id="Rectangle-1-Copy-10" fill="#82B9F9" sketch:type="MSShapeGroup"></path>
    </g>
</svg>