<?xml version="1.0" encoding="UTF-8" standalone="no"?>
<svg width="257px" height="56px" viewBox="0 0 257 56" version="1.1" xmlns="http://www.w3.org/2000/svg" xmlns:xlink="http://www.w3.org/1999/xlink" xmlns:sketch="http://www.bohemiancoding.com/sketch/ns">
    <!-- Generator: Sketch 3.3.3 (12072) - http://www.bohemiancoding.com/sketch -->
    <title>Untitled 3</title>
    <desc>Created with Sketch.</desc>
    <defs></defs>
    <g id="Page-1" stroke="none" stroke-width="1" fill="none" fill-rule="evenodd" sketch:type="MSPage">
        <g id="AllJobs" sketch:type="MSLayerGroup">
            <g id="Page-1" sketch:type="MSShapeGroup">
                <g id="selectJob">
                    <g id="Page-1">
                        <g id="SelectJobButton">
                            <g id="Page-1">
                                <g id="Group">
                                    <path d="M244,25 C250.627417,25 256,19.627417 256,13 C256,6.372583 250.627417,1 244,1 C237.372583,1 232,6.372583 232,13 C232,19.627417 237.372583,25 244,25 L244,25 L244,25 Z M244,5.5 L252.25,17.5 L235.75,17.5 L244,5.5 L244,5.5 Z" id="Oval-16-Copy-5" stroke="#979797" transform="translate(244.000000, 13.000000) rotate(90.000000) translate(-244.000000, -13.000000) "></path>
                                    <path d="M12,25 C18.627417,25 24,19.627417 24,13 C24,6.372583 18.627417,1 12,1 C5.372583,1 0,6.372583 0,13 C0,19.627417 5.372583,25 12,25 L12,25 L12,25 Z M12,5.5 L20.25,17.5 L3.75,17.5 L12,5.5 L12,5.5 Z" id="Oval-16-Copy-4" fill="#B3B6BB" transform="translate(12.000000, 13.000000) rotate(-90.000000) translate(-12.000000, -13.000000) "></path>
                                    <path d="M244,55 C250.627417,55 256,49.627417 256,43 C256,36.372583 250.627417,31 244,31 C237.372583,31 232,36.372583 232,43 C232,49.627417 237.372583,55 244,55 L244,55 L244,55 Z M244,35.5 L252.25,47.5 L235.75,47.5 L244,35.5 L244,35.5 Z" id="Oval-16-Copy-27" stroke="#979797" transform="translate(244.000000, 43.000000) rotate(90.000000) translate(-244.000000, -43.000000) "></path>
                                    <path d="M12,55 C18.627417,55 24,49.627417 24,43 C24,36.372583 18.627417,31 12,31 C5.372583,31 0,36.372583 0,43 C0,49.627417 5.372583,55 12,55 L12,55 L12,55 Z M12,35.5 L20.25,47.5 L3.75,47.5 L12,35.5 L12,35.5 Z" id="Oval-16-Copy-28" fill="#4A90E2" transform="translate(12.000000, 43.000000) rotate(-90.000000) translate(-12.000000, -43.000000) "></path>
                                    <path d="M38.015625,15.296875 L36.2734375,10.2265625 L34.421875,15.296875 L38.015625,15.296875 L38.015625,15.296875 Z M35.4609375,8.5234375 L37.21875,8.5234375 L41.3828125,20 L39.6796875,20 L38.515625,16.5625 L33.9765625,16.5625 L32.734375,20 L31.140625,20 L35.4609375,8.5234375 L35.4609375,8.5234375 Z M42.796875,8.5234375 L44.3515625,8.5234375 L44.3515625,18.6328125 L50.1640625,18.6328125 L50.1640625,20 L42.796875,20 L42.796875,8.5234375 L42.796875,8.5234375 Z M51.6953125,8.5234375 L53.25,8.5234375 L53.25,18.6328125 L59.0625,18.6328125 L59.0625,20 L51.6953125,20 L51.6953125,8.5234375 L51.6953125,8.5234375 Z M70.0859375,16.578125 C70.0859375,17.5468798 69.9427098,18.2994765 69.65625,18.8359375 C69.1249973,19.8151091 68.1145908,20.3046875 66.625,20.3046875 C65.7656207,20.3046875 65.031253,20.0716169 64.421875,19.6054688 C63.812497,19.1393206 63.5078125,18.3099018 63.5078125,17.1171875 L63.5078125,16.296875 L64.96875,16.296875 L64.96875,17.1171875 C64.96875,17.7421906 65.1080715,18.212238 65.3867188,18.5273438 C65.665366,18.8424495 66.0989554,19 66.6875,19 C67.5156291,19 68.0572904,18.7161487 68.3125,18.1484375 C68.4687508,17.7994774 68.546875,17.1406298 68.546875,16.171875 L68.546875,8.5234375 L70.0859375,8.5234375 L70.0859375,16.578125 L70.0859375,16.578125 Z M81.90625,10.1640625 C82.6666705,11.1796926 83.046875,12.4791588 83.046875,14.0625 C83.046875,15.7760502 82.6119835,17.2005152 81.7421875,18.3359375 C80.7213491,19.6692775 79.2656345,20.3359375 77.375,20.3359375 C75.6093662,20.3359375 74.2213592,19.75261 73.2109375,18.5859375 C72.3098913,17.4609319 71.859375,16.0390711 71.859375,14.3203125 C71.859375,12.7682214 72.2447878,11.4401097 73.015625,10.3359375 C74.0052133,8.91926375 75.4687403,8.2109375 77.40625,8.2109375 C79.4323018,8.2109375 80.9322868,8.86197266 81.90625,10.1640625 L81.90625,10.1640625 L81.90625,10.1640625 Z M80.5351562,17.4726562 C81.1471385,16.4908805 81.453125,15.3619855 81.453125,14.0859375 C81.453125,12.7369724 81.1002639,11.6510458 80.3945312,10.828125 C79.6887986,10.0052042 78.7239645,9.59375 77.5,9.59375 C76.3124941,9.59375 75.3437538,10.001298 74.59375,10.8164062 C73.8437462,11.6315145 73.46875,12.8333254 73.46875,14.421875 C73.46875,15.6927147 73.7903614,16.7643186 74.4335938,17.6367188 C75.0768261,18.5091189 76.1197845,18.9453125 77.5625,18.9453125 C78.9322985,18.9453125 79.923174,18.454432 80.5351562,17.4726562 L80.5351562,17.4726562 L80.5351562,17.4726562 Z M89.2109375,13.375 C89.8671908,13.375 90.3776023,13.2838551 90.7421875,13.1015625 C91.315107,12.8151027 91.6015625,12.2994829 91.6015625,11.5546875 C91.6015625,10.8046837 91.296878,10.2994805 90.6875,10.0390625 C90.3437483,9.89322844 89.8333367,9.8203125 89.15625,9.8203125 L86.3828125,9.8203125 L86.3828125,13.375 L89.2109375,13.375 L89.2109375,13.375 Z M89.734375,18.671875 C90.6875048,18.671875 91.3671855,18.3958361 91.7734375,17.84375 C92.0286471,17.4947899 92.15625,17.0729191 92.15625,16.578125 C92.15625,15.7447875 91.7838579,15.1770848 91.0390625,14.875 C90.6432272,14.7135409 90.1197949,14.6328125 89.46875,14.6328125 L86.3828125,14.6328125 L86.3828125,18.671875 L89.734375,18.671875 L89.734375,18.671875 Z M84.859375,8.5234375 L89.7890625,8.5234375 C91.1328192,8.5234375 92.0885388,8.92447516 92.65625,9.7265625 C92.989585,10.2005232 93.15625,10.7473927 93.15625,11.3671875 C93.15625,12.0911495 92.9505229,12.6848935 92.5390625,13.1484375 C92.3255198,13.3932304 92.0182312,13.6171865 91.6171875,13.8203125 C92.2057321,14.044272 92.6458319,14.2968736 92.9375,14.578125 C93.4531276,15.0781275 93.7109375,15.7682248 93.7109375,16.6484375 C93.7109375,17.3880245 93.479169,18.0572887 93.015625,18.65625 C92.3229132,19.5520878 91.2213617,20 89.7109375,20 L84.859375,20 L84.859375,8.5234375 L84.859375,8.5234375 Z M96.5859375,16.296875 C96.622396,16.9479199 96.7760403,17.4765605 97.046875,17.8828125 C97.5625026,18.643233 98.4713477,19.0234375 99.7734375,19.0234375 C100.356774,19.0234375 100.888018,18.940105 101.367188,18.7734375 C102.294275,18.4505192 102.757812,17.8724 102.757812,17.0390625 C102.757812,16.4140594 102.562502,15.9687513 102.171875,15.703125 C101.77604,15.442707 101.156254,15.2161468 100.3125,15.0234375 L98.7578125,14.671875 C97.7421824,14.4427072 97.0234396,14.1901055 96.6015625,13.9140625 C95.8723922,13.4348934 95.5078125,12.7187548 95.5078125,11.765625 C95.5078125,10.7343698 95.8645798,9.88802414 96.578125,9.2265625 C97.2916702,8.56510086 98.3020768,8.234375 99.609375,8.234375 C100.812506,8.234375 101.834631,8.52473668 102.675781,9.10546875 C103.516931,9.68620082 103.9375,10.614577 103.9375,11.890625 L102.476562,11.890625 C102.398437,11.2760386 102.231772,10.8046891 101.976562,10.4765625 C101.502602,9.87760117 100.697922,9.578125 99.5625,9.578125 C98.6458287,9.578125 97.9869812,9.77083141 97.5859375,10.15625 C97.1848938,10.5416686 96.984375,10.9895808 96.984375,11.5 C96.984375,12.0625028 97.2187477,12.473957 97.6875,12.734375 C97.9947932,12.9010425 98.6900988,13.1093738 99.7734375,13.359375 L101.382812,13.7265625 C102.158858,13.9036467 102.75781,14.1458318 103.179688,14.453125 C103.908858,14.989586 104.273438,15.7682241 104.273438,16.7890625 C104.273438,18.0599022 103.811203,18.9687473 102.886719,19.515625 C101.962235,20.0625027 100.888027,20.3359375 99.6640625,20.3359375 C98.236972,20.3359375 97.1197957,19.9713578 96.3125,19.2421875 C95.5052043,18.5182255 95.1093749,17.5364645 95.125,16.296875 L96.5859375,16.296875 L96.5859375,16.296875 Z" id="----ALL-JOBS-Copy" fill="#4A4A4A"></path>
                                    <path d="M115.460938,20 L114.125,20 L114.125,8.359375 L115.460938,8.359375 L115.460938,20 L115.460938,20 Z M128.28125,16.296875 C128.317709,16.9479199 128.471353,17.4765605 128.742188,17.8828125 C129.257815,18.643233 130.16666,19.0234375 131.46875,19.0234375 C132.052086,19.0234375 132.583331,18.940105 133.0625,18.7734375 C133.989588,18.4505192 134.453125,17.8724 134.453125,17.0390625 C134.453125,16.4140594 134.257814,15.9687513 133.867188,15.703125 C133.471352,15.442707 132.851567,15.2161468 132.007812,15.0234375 L130.453125,14.671875 C129.437495,14.4427072 128.718752,14.1901055 128.296875,13.9140625 C127.567705,13.4348934 127.203125,12.7187548 127.203125,11.765625 C127.203125,10.7343698 127.559892,9.88802414 128.273438,9.2265625 C128.986983,8.56510086 129.997389,8.234375 131.304688,8.234375 C132.507819,8.234375 133.529944,8.52473668 134.371094,9.10546875 C135.212244,9.68620082 135.632812,10.614577 135.632812,11.890625 L134.171875,11.890625 C134.09375,11.2760386 133.927085,10.8046891 133.671875,10.4765625 C133.197914,9.87760117 132.393235,9.578125 131.257812,9.578125 C130.341141,9.578125 129.682294,9.77083141 129.28125,10.15625 C128.880206,10.5416686 128.679688,10.9895808 128.679688,11.5 C128.679688,12.0625028 128.91406,12.473957 129.382812,12.734375 C129.690106,12.9010425 130.385411,13.1093738 131.46875,13.359375 L133.078125,13.7265625 C133.854171,13.9036467 134.453123,14.1458318 134.875,14.453125 C135.60417,14.989586 135.96875,15.7682241 135.96875,16.7890625 C135.96875,18.0599022 135.506515,18.9687473 134.582031,19.515625 C133.657547,20.0625027 132.583339,20.3359375 131.359375,20.3359375 C129.932285,20.3359375 128.815108,19.9713578 128.007812,19.2421875 C127.200517,18.5182255 126.804687,17.5364645 126.820312,16.296875 L128.28125,16.296875 L128.28125,16.296875 Z M138.085938,8.5234375 L146.453125,8.5234375 L146.453125,9.9296875 L139.601562,9.9296875 L139.601562,13.4140625 L145.9375,13.4140625 L145.9375,14.7421875 L139.601562,14.7421875 L139.601562,18.6328125 L146.570312,18.6328125 L146.570312,20 L138.085938,20 L138.085938,8.5234375 L138.085938,8.5234375 Z M148.609375,8.5234375 L150.164062,8.5234375 L150.164062,18.6328125 L155.976562,18.6328125 L155.976562,20 L148.609375,20 L148.609375,8.5234375 L148.609375,8.5234375 Z M157.65625,8.5234375 L166.023438,8.5234375 L166.023438,9.9296875 L159.171875,9.9296875 L159.171875,13.4140625 L165.507812,13.4140625 L165.507812,14.7421875 L159.171875,14.7421875 L159.171875,18.6328125 L166.140625,18.6328125 L166.140625,20 L157.65625,20 L157.65625,8.5234375 L157.65625,8.5234375 Z M176.398438,9.359375 C177.200525,10.1250038 177.645833,10.9947868 177.734375,11.96875 L176.21875,11.96875 C176.046874,11.229163 175.70443,10.6432313 175.191406,10.2109375 C174.678383,9.77864367 173.958338,9.5625 173.03125,9.5625 C171.901036,9.5625 170.988285,9.95963145 170.292969,10.7539062 C169.597653,11.5481811 169.25,12.7656168 169.25,14.40625 C169.25,15.7500067 169.563799,16.8398396 170.191406,17.6757812 C170.819014,18.5117229 171.755202,18.9296875 173,18.9296875 C174.145839,18.9296875 175.018226,18.4895877 175.617188,17.609375 C175.934897,17.145831 176.171874,16.5364621 176.328125,15.78125 L177.84375,15.78125 C177.708333,16.9895894 177.26042,18.0026001 176.5,18.8203125 C175.588537,19.8046924 174.359383,20.296875 172.8125,20.296875 C171.47916,20.296875 170.35938,19.8932332 169.453125,19.0859375 C168.260411,18.0182238 167.664062,16.3698028 167.664062,14.140625 C167.664062,12.4479082 168.111975,11.0599013 169.007812,9.9765625 C169.976567,8.79947328 171.312491,8.2109375 173.015625,8.2109375 C174.468757,8.2109375 175.59635,8.59374617 176.398438,9.359375 L176.398438,9.359375 L176.398438,9.359375 Z M188.085938,8.5234375 L188.085938,9.890625 L184.21875,9.890625 L184.21875,20 L182.640625,20 L182.640625,9.890625 L178.773438,9.890625 L178.773438,8.5234375 L188.085938,8.5234375 L188.085938,8.5234375 Z M199.304688,16.578125 C199.304688,17.5468798 199.16146,18.2994765 198.875,18.8359375 C198.343747,19.8151091 197.333341,20.3046875 195.84375,20.3046875 C194.984371,20.3046875 194.250003,20.0716169 193.640625,19.6054688 C193.031247,19.1393206 192.726562,18.3099018 192.726562,17.1171875 L192.726562,16.296875 L194.1875,16.296875 L194.1875,17.1171875 C194.1875,17.7421906 194.326822,18.212238 194.605469,18.5273438 C194.884116,18.8424495 195.317705,19 195.90625,19 C196.734379,19 197.27604,18.7161487 197.53125,18.1484375 C197.687501,17.7994774 197.765625,17.1406298 197.765625,16.171875 L197.765625,8.5234375 L199.304688,8.5234375 L199.304688,16.578125 L199.304688,16.578125 Z M211.125,10.1640625 C211.88542,11.1796926 212.265625,12.4791588 212.265625,14.0625 C212.265625,15.7760502 211.830734,17.2005152 210.960938,18.3359375 C209.940099,19.6692775 208.484384,20.3359375 206.59375,20.3359375 C204.828116,20.3359375 203.440109,19.75261 202.429688,18.5859375 C201.528641,17.4609319 201.078125,16.0390711 201.078125,14.3203125 C201.078125,12.7682214 201.463538,11.4401097 202.234375,10.3359375 C203.223963,8.91926375 204.68749,8.2109375 206.625,8.2109375 C208.651052,8.2109375 210.151037,8.86197266 211.125,10.1640625 L211.125,10.1640625 L211.125,10.1640625 Z M209.753906,17.4726562 C210.365888,16.4908805 210.671875,15.3619855 210.671875,14.0859375 C210.671875,12.7369724 210.319014,11.6510458 209.613281,10.828125 C208.907549,10.0052042 207.942714,9.59375 206.71875,9.59375 C205.531244,9.59375 204.562504,10.001298 203.8125,10.8164062 C203.062496,11.6315145 202.6875,12.8333254 202.6875,14.421875 C202.6875,15.6927147 203.009111,16.7643186 203.652344,17.6367188 C204.295576,18.5091189 205.338534,18.9453125 206.78125,18.9453125 C208.151049,18.9453125 209.141924,18.454432 209.753906,17.4726562 L209.753906,17.4726562 L209.753906,17.4726562 Z M218.429688,13.375 C219.085941,13.375 219.596352,13.2838551 219.960938,13.1015625 C220.533857,12.8151027 220.820312,12.2994829 220.820312,11.5546875 C220.820312,10.8046837 220.515628,10.2994805 219.90625,10.0390625 C219.562498,9.89322844 219.052087,9.8203125 218.375,9.8203125 L215.601562,9.8203125 L215.601562,13.375 L218.429688,13.375 L218.429688,13.375 Z M218.953125,18.671875 C219.906255,18.671875 220.585935,18.3958361 220.992188,17.84375 C221.247397,17.4947899 221.375,17.0729191 221.375,16.578125 C221.375,15.7447875 221.002608,15.1770848 220.257812,14.875 C219.861977,14.7135409 219.338545,14.6328125 218.6875,14.6328125 L215.601562,14.6328125 L215.601562,18.671875 L218.953125,18.671875 L218.953125,18.671875 Z M214.078125,8.5234375 L219.007812,8.5234375 C220.351569,8.5234375 221.307289,8.92447516 221.875,9.7265625 C222.208335,10.2005232 222.375,10.7473927 222.375,11.3671875 C222.375,12.0911495 222.169273,12.6848935 221.757812,13.1484375 C221.54427,13.3932304 221.236981,13.6171865 220.835938,13.8203125 C221.424482,14.044272 221.864582,14.2968736 222.15625,14.578125 C222.671878,15.0781275 222.929688,15.7682248 222.929688,16.6484375 C222.929688,17.3880245 222.697919,18.0572887 222.234375,18.65625 C221.541663,19.5520878 220.440112,20 218.929688,20 L214.078125,20 L214.078125,8.5234375 L214.078125,8.5234375 Z" id="|--SELECT-JOB" fill="#9B9B9B"></path>
                                    <path d="M38.015625,45.296875 L36.2734375,40.2265625 L34.421875,45.296875 L38.015625,45.296875 L38.015625,45.296875 Z M35.4609375,38.5234375 L37.21875,38.5234375 L41.3828125,50 L39.6796875,50 L38.515625,46.5625 L33.9765625,46.5625 L32.734375,50 L31.140625,50 L35.4609375,38.5234375 L35.4609375,38.5234375 Z M42.796875,38.5234375 L44.3515625,38.5234375 L44.3515625,48.6328125 L50.1640625,48.6328125 L50.1640625,50 L42.796875,50 L42.796875,38.5234375 L42.796875,38.5234375 Z M51.6953125,38.5234375 L53.25,38.5234375 L53.25,48.6328125 L59.0625,48.6328125 L59.0625,50 L51.6953125,50 L51.6953125,38.5234375 L51.6953125,38.5234375 Z M70.0859375,46.578125 C70.0859375,47.5468798 69.9427098,48.2994765 69.65625,48.8359375 C69.1249973,49.8151091 68.1145908,50.3046875 66.625,50.3046875 C65.7656207,50.3046875 65.031253,50.0716169 64.421875,49.6054688 C63.812497,49.1393206 63.5078125,48.3099018 63.5078125,47.1171875 L63.5078125,46.296875 L64.96875,46.296875 L64.96875,47.1171875 C64.96875,47.7421906 65.1080715,48.212238 65.3867188,48.5273438 C65.665366,48.8424495 66.0989554,49 66.6875,49 C67.5156291,49 68.0572904,48.7161487 68.3125,48.1484375 C68.4687508,47.7994774 68.546875,47.1406298 68.546875,46.171875 L68.546875,38.5234375 L70.0859375,38.5234375 L70.0859375,46.578125 L70.0859375,46.578125 Z M81.90625,40.1640625 C82.6666705,41.1796926 83.046875,42.4791588 83.046875,44.0625 C83.046875,45.7760502 82.6119835,47.2005152 81.7421875,48.3359375 C80.7213491,49.6692775 79.2656345,50.3359375 77.375,50.3359375 C75.6093662,50.3359375 74.2213592,49.75261 73.2109375,48.5859375 C72.3098913,47.4609319 71.859375,46.0390711 71.859375,44.3203125 C71.859375,42.7682214 72.2447878,41.4401097 73.015625,40.3359375 C74.0052133,38.9192638 75.4687403,38.2109375 77.40625,38.2109375 C79.4323018,38.2109375 80.9322868,38.8619727 81.90625,40.1640625 L81.90625,40.1640625 L81.90625,40.1640625 Z M80.5351562,47.4726562 C81.1471385,46.4908805 81.453125,45.3619855 81.453125,44.0859375 C81.453125,42.7369724 81.1002639,41.6510458 80.3945312,40.828125 C79.6887986,40.0052042 78.7239645,39.59375 77.5,39.59375 C76.3124941,39.59375 75.3437538,40.001298 74.59375,40.8164062 C73.8437462,41.6315145 73.46875,42.8333254 73.46875,44.421875 C73.46875,45.6927147 73.7903614,46.7643186 74.4335938,47.6367188 C75.0768261,48.5091189 76.1197845,48.9453125 77.5625,48.9453125 C78.9322985,48.9453125 79.923174,48.454432 80.5351562,47.4726562 L80.5351562,47.4726562 L80.5351562,47.4726562 Z M89.2109375,43.375 C89.8671908,43.375 90.3776023,43.2838551 90.7421875,43.1015625 C91.315107,42.8151027 91.6015625,42.2994829 91.6015625,41.5546875 C91.6015625,40.8046837 91.296878,40.2994805 90.6875,40.0390625 C90.3437483,39.8932284 89.8333367,39.8203125 89.15625,39.8203125 L86.3828125,39.8203125 L86.3828125,43.375 L89.2109375,43.375 L89.2109375,43.375 Z M89.734375,48.671875 C90.6875048,48.671875 91.3671855,48.3958361 91.7734375,47.84375 C92.0286471,47.4947899 92.15625,47.0729191 92.15625,46.578125 C92.15625,45.7447875 91.7838579,45.1770848 91.0390625,44.875 C90.6432272,44.7135409 90.1197949,44.6328125 89.46875,44.6328125 L86.3828125,44.6328125 L86.3828125,48.671875 L89.734375,48.671875 L89.734375,48.671875 Z M84.859375,38.5234375 L89.7890625,38.5234375 C91.1328192,38.5234375 92.0885388,38.9244752 92.65625,39.7265625 C92.989585,40.2005232 93.15625,40.7473927 93.15625,41.3671875 C93.15625,42.0911495 92.9505229,42.6848935 92.5390625,43.1484375 C92.3255198,43.3932304 92.0182312,43.6171865 91.6171875,43.8203125 C92.2057321,44.044272 92.6458319,44.2968736 92.9375,44.578125 C93.4531276,45.0781275 93.7109375,45.7682248 93.7109375,46.6484375 C93.7109375,47.3880245 93.479169,48.0572887 93.015625,48.65625 C92.3229132,49.5520878 91.2213617,50 89.7109375,50 L84.859375,50 L84.859375,38.5234375 L84.859375,38.5234375 Z M96.5859375,46.296875 C96.622396,46.9479199 96.7760403,47.4765605 97.046875,47.8828125 C97.5625026,48.643233 98.4713477,49.0234375 99.7734375,49.0234375 C100.356774,49.0234375 100.888018,48.940105 101.367188,48.7734375 C102.294275,48.4505192 102.757812,47.8724 102.757812,47.0390625 C102.757812,46.4140594 102.562502,45.9687513 102.171875,45.703125 C101.77604,45.442707 101.156254,45.2161468 100.3125,45.0234375 L98.7578125,44.671875 C97.7421824,44.4427072 97.0234396,44.1901055 96.6015625,43.9140625 C95.8723922,43.4348934 95.5078125,42.7187548 95.5078125,41.765625 C95.5078125,40.7343698 95.8645798,39.8880241 96.578125,39.2265625 C97.2916702,38.5651009 98.3020768,38.234375 99.609375,38.234375 C100.812506,38.234375 101.834631,38.5247367 102.675781,39.1054688 C103.516931,39.6862008 103.9375,40.614577 103.9375,41.890625 L102.476562,41.890625 C102.398437,41.2760386 102.231772,40.8046891 101.976562,40.4765625 C101.502602,39.8776012 100.697922,39.578125 99.5625,39.578125 C98.6458287,39.578125 97.9869812,39.7708314 97.5859375,40.15625 C97.1848938,40.5416686 96.984375,40.9895808 96.984375,41.5 C96.984375,42.0625028 97.2187477,42.473957 97.6875,42.734375 C97.9947932,42.9010425 98.6900988,43.1093738 99.7734375,43.359375 L101.382812,43.7265625 C102.158858,43.9036467 102.75781,44.1458318 103.179688,44.453125 C103.908858,44.989586 104.273438,45.7682241 104.273438,46.7890625 C104.273438,48.0599022 103.811203,48.9687473 102.886719,49.515625 C101.962235,50.0625027 100.888027,50.3359375 99.6640625,50.3359375 C98.236972,50.3359375 97.1197957,49.9713578 96.3125,49.2421875 C95.5052043,48.5182255 95.1093749,47.5364645 95.125,46.296875 L96.5859375,46.296875 L96.5859375,46.296875 Z" id="----ALL-JOBS" fill="#4A90E2"></path>
                                    <path d="M115.460938,50 L114.125,50 L114.125,38.359375 L115.460938,38.359375 L115.460938,50 L115.460938,50 Z M128.28125,46.296875 C128.317709,46.9479199 128.471353,47.4765605 128.742188,47.8828125 C129.257815,48.643233 130.16666,49.0234375 131.46875,49.0234375 C132.052086,49.0234375 132.583331,48.940105 133.0625,48.7734375 C133.989588,48.4505192 134.453125,47.8724 134.453125,47.0390625 C134.453125,46.4140594 134.257814,45.9687513 133.867188,45.703125 C133.471352,45.442707 132.851567,45.2161468 132.007812,45.0234375 L130.453125,44.671875 C129.437495,44.4427072 128.718752,44.1901055 128.296875,43.9140625 C127.567705,43.4348934 127.203125,42.7187548 127.203125,41.765625 C127.203125,40.7343698 127.559892,39.8880241 128.273438,39.2265625 C128.986983,38.5651009 129.997389,38.234375 131.304688,38.234375 C132.507819,38.234375 133.529944,38.5247367 134.371094,39.1054688 C135.212244,39.6862008 135.632812,40.614577 135.632812,41.890625 L134.171875,41.890625 C134.09375,41.2760386 133.927085,40.8046891 133.671875,40.4765625 C133.197914,39.8776012 132.393235,39.578125 131.257812,39.578125 C130.341141,39.578125 129.682294,39.7708314 129.28125,40.15625 C128.880206,40.5416686 128.679688,40.9895808 128.679688,41.5 C128.679688,42.0625028 128.91406,42.473957 129.382812,42.734375 C129.690106,42.9010425 130.385411,43.1093738 131.46875,43.359375 L133.078125,43.7265625 C133.854171,43.9036467 134.453123,44.1458318 134.875,44.453125 C135.60417,44.989586 135.96875,45.7682241 135.96875,46.7890625 C135.96875,48.0599022 135.506515,48.9687473 134.582031,49.515625 C133.657547,50.0625027 132.583339,50.3359375 131.359375,50.3359375 C129.932285,50.3359375 128.815108,49.9713578 128.007812,49.2421875 C127.200517,48.5182255 126.804687,47.5364645 126.820312,46.296875 L128.28125,46.296875 L128.28125,46.296875 Z M138.085938,38.5234375 L146.453125,38.5234375 L146.453125,39.9296875 L139.601562,39.9296875 L139.601562,43.4140625 L145.9375,43.4140625 L145.9375,44.7421875 L139.601562,44.7421875 L139.601562,48.6328125 L146.570312,48.6328125 L146.570312,50 L138.085938,50 L138.085938,38.5234375 L138.085938,38.5234375 Z M148.609375,38.5234375 L150.164062,38.5234375 L150.164062,48.6328125 L155.976562,48.6328125 L155.976562,50 L148.609375,50 L148.609375,38.5234375 L148.609375,38.5234375 Z M157.65625,38.5234375 L166.023438,38.5234375 L166.023438,39.9296875 L159.171875,39.9296875 L159.171875,43.4140625 L165.507812,43.4140625 L165.507812,44.7421875 L159.171875,44.7421875 L159.171875,48.6328125 L166.140625,48.6328125 L166.140625,50 L157.65625,50 L157.65625,38.5234375 L157.65625,38.5234375 Z M176.398438,39.359375 C177.200525,40.1250038 177.645833,40.9947868 177.734375,41.96875 L176.21875,41.96875 C176.046874,41.229163 175.70443,40.6432313 175.191406,40.2109375 C174.678383,39.7786437 173.958338,39.5625 173.03125,39.5625 C171.901036,39.5625 170.988285,39.9596314 170.292969,40.7539062 C169.597653,41.5481811 169.25,42.7656168 169.25,44.40625 C169.25,45.7500067 169.563799,46.8398396 170.191406,47.6757812 C170.819014,48.5117229 171.755202,48.9296875 173,48.9296875 C174.145839,48.9296875 175.018226,48.4895877 175.617188,47.609375 C175.934897,47.145831 176.171874,46.5364621 176.328125,45.78125 L177.84375,45.78125 C177.708333,46.9895894 177.26042,48.0026001 176.5,48.8203125 C175.588537,49.8046924 174.359383,50.296875 172.8125,50.296875 C171.47916,50.296875 170.35938,49.8932332 169.453125,49.0859375 C168.260411,48.0182238 167.664062,46.3698028 167.664062,44.140625 C167.664062,42.4479082 168.111975,41.0599013 169.007812,39.9765625 C169.976567,38.7994733 171.312491,38.2109375 173.015625,38.2109375 C174.468757,38.2109375 175.59635,38.5937462 176.398438,39.359375 L176.398438,39.359375 L176.398438,39.359375 Z M188.085938,38.5234375 L188.085938,39.890625 L184.21875,39.890625 L184.21875,50 L182.640625,50 L182.640625,39.890625 L178.773438,39.890625 L178.773438,38.5234375 L188.085938,38.5234375 L188.085938,38.5234375 Z M199.304688,46.578125 C199.304688,47.5468798 199.16146,48.2994765 198.875,48.8359375 C198.343747,49.8151091 197.333341,50.3046875 195.84375,50.3046875 C194.984371,50.3046875 194.250003,50.0716169 193.640625,49.6054688 C193.031247,49.1393206 192.726562,48.3099018 192.726562,47.1171875 L192.726562,46.296875 L194.1875,46.296875 L194.1875,47.1171875 C194.1875,47.7421906 194.326822,48.212238 194.605469,48.5273438 C194.884116,48.8424495 195.317705,49 195.90625,49 C196.734379,49 197.27604,48.7161487 197.53125,48.1484375 C197.687501,47.7994774 197.765625,47.1406298 197.765625,46.171875 L197.765625,38.5234375 L199.304688,38.5234375 L199.304688,46.578125 L199.304688,46.578125 Z M211.125,40.1640625 C211.88542,41.1796926 212.265625,42.4791588 212.265625,44.0625 C212.265625,45.7760502 211.830734,47.2005152 210.960938,48.3359375 C209.940099,49.6692775 208.484384,50.3359375 206.59375,50.3359375 C204.828116,50.3359375 203.440109,49.75261 202.429688,48.5859375 C201.528641,47.4609319 201.078125,46.0390711 201.078125,44.3203125 C201.078125,42.7682214 201.463538,41.4401097 202.234375,40.3359375 C203.223963,38.9192638 204.68749,38.2109375 206.625,38.2109375 C208.651052,38.2109375 210.151037,38.8619727 211.125,40.1640625 L211.125,40.1640625 L211.125,40.1640625 Z M209.753906,47.4726562 C210.365888,46.4908805 210.671875,45.3619855 210.671875,44.0859375 C210.671875,42.7369724 210.319014,41.6510458 209.613281,40.828125 C208.907549,40.0052042 207.942714,39.59375 206.71875,39.59375 C205.531244,39.59375 204.562504,40.001298 203.8125,40.8164062 C203.062496,41.6315145 202.6875,42.8333254 202.6875,44.421875 C202.6875,45.6927147 203.009111,46.7643186 203.652344,47.6367188 C204.295576,48.5091189 205.338534,48.9453125 206.78125,48.9453125 C208.151049,48.9453125 209.141924,48.454432 209.753906,47.4726562 L209.753906,47.4726562 L209.753906,47.4726562 Z M218.429688,43.375 C219.085941,43.375 219.596352,43.2838551 219.960938,43.1015625 C220.533857,42.8151027 220.820312,42.2994829 220.820312,41.5546875 C220.820312,40.8046837 220.515628,40.2994805 219.90625,40.0390625 C219.562498,39.8932284 219.052087,39.8203125 218.375,39.8203125 L215.601562,39.8203125 L215.601562,43.375 L218.429688,43.375 L218.429688,43.375 Z M218.953125,48.671875 C219.906255,48.671875 220.585935,48.3958361 220.992188,47.84375 C221.247397,47.4947899 221.375,47.0729191 221.375,46.578125 C221.375,45.7447875 221.002608,45.1770848 220.257812,44.875 C219.861977,44.7135409 219.338545,44.6328125 218.6875,44.6328125 L215.601562,44.6328125 L215.601562,48.671875 L218.953125,48.671875 L218.953125,48.671875 Z M214.078125,38.5234375 L219.007812,38.5234375 C220.351569,38.5234375 221.307289,38.9244752 221.875,39.7265625 C222.208335,40.2005232 222.375,40.7473927 222.375,41.3671875 C222.375,42.0911495 222.169273,42.6848935 221.757812,43.1484375 C221.54427,43.3932304 221.236981,43.6171865 220.835938,43.8203125 C221.424482,44.044272 221.864582,44.2968736 222.15625,44.578125 C222.671878,45.0781275 222.929688,45.7682248 222.929688,46.6484375 C222.929688,47.3880245 222.697919,48.0572887 222.234375,48.65625 C221.541663,49.5520878 220.440112,50 218.929688,50 L214.078125,50 L214.078125,38.5234375 L214.078125,38.5234375 Z" id="|--SELECT-JOB" fill="#9B9B9B"></path>
                                </g>
                            </g>
                        </g>
                    </g>
                </g>
            </g>
        </g>
    </g>
</svg>