<?xml version="1.0" encoding="UTF-8" standalone="no"?>
<svg width="152px" height="27px" viewBox="0 0 152 27" version="1.1" xmlns="http://www.w3.org/2000/svg" xmlns:xlink="http://www.w3.org/1999/xlink" xmlns:sketch="http://www.bohemiancoding.com/sketch/ns">
    <!-- Generator: Sketch 3.3.3 (12072) - http://www.bohemiancoding.com/sketch -->
    <title>Untitled</title>
    <desc>Created with Sketch.</desc>
    <defs></defs>
    <g id="Page-1" stroke="none" stroke-width="1" fill="none" fill-rule="evenodd" sketch:type="MSPage">
        <path d="M151.102583,27 L143.482304,10.0312577 C140.993814,4.48991769 134.056025,0 127.985086,0 L10.9924066,0 C4.92585242,0 0,4.92817222 0,11.0073807 L0,27 L151.102583,27 Z" id="Rectangle-94" stroke="#979797" fill="#FFF4DA" sketch:type="MSShapeGroup"></path>
        <path d="M23.34375,20 L20.828125,20 L19.828125,17.3984375 L15.25,17.3984375 L14.3046875,20 L11.8515625,20 L16.3125,8.546875 L18.7578125,8.546875 L23.34375,20 Z M19.0859375,15.46875 L17.5078125,11.21875 L15.9609375,15.46875 L19.0859375,15.46875 Z M24.5703125,20 L24.5703125,8.546875 L28.28125,8.546875 C29.687507,8.546875 30.6041645,8.60416609 31.03125,8.71875 C31.6875033,8.89062586 32.236977,9.26432004 32.6796875,9.83984375 C33.122398,10.4153675 33.34375,11.1588496 33.34375,12.0703125 C33.34375,12.773441 33.2161471,13.3645809 32.9609375,13.84375 C32.7057279,14.3229191 32.3815124,14.6992174 31.9882812,14.9726562 C31.5950501,15.2460951 31.1953145,15.4270829 30.7890625,15.515625 C30.2369764,15.6250005 29.4375052,15.6796875 28.390625,15.6796875 L26.8828125,15.6796875 L26.8828125,20 L24.5703125,20 Z M26.8828125,10.484375 L26.8828125,13.734375 L28.1484375,13.734375 C29.0599004,13.734375 29.6692693,13.6744798 29.9765625,13.5546875 C30.2838557,13.4348952 30.5247387,13.2473971 30.6992188,12.9921875 C30.8736988,12.7369779 30.9609375,12.4401059 30.9609375,12.1015625 C30.9609375,11.6848938 30.8385429,11.3411472 30.59375,11.0703125 C30.3489571,10.7994778 30.0390644,10.6302087 29.6640625,10.5625 C29.3880195,10.5104164 28.8333375,10.484375 28,10.484375 L26.8828125,10.484375 Z M35.2421875,20 L35.2421875,8.546875 L38.953125,8.546875 C40.359382,8.546875 41.2760395,8.60416609 41.703125,8.71875 C42.3593783,8.89062586 42.908852,9.26432004 43.3515625,9.83984375 C43.794273,10.4153675 44.015625,11.1588496 44.015625,12.0703125 C44.015625,12.773441 43.8880221,13.3645809 43.6328125,13.84375 C43.3776029,14.3229191 43.0533874,14.6992174 42.6601562,14.9726562 C42.2669251,15.2460951 41.8671895,15.4270829 41.4609375,15.515625 C40.9088514,15.6250005 40.1093802,15.6796875 39.0625,15.6796875 L37.5546875,15.6796875 L37.5546875,20 L35.2421875,20 Z M37.5546875,10.484375 L37.5546875,13.734375 L38.8203125,13.734375 C39.7317754,13.734375 40.3411443,13.6744798 40.6484375,13.5546875 C40.9557307,13.4348952 41.1966137,13.2473971 41.3710938,12.9921875 C41.5455738,12.7369779 41.6328125,12.4401059 41.6328125,12.1015625 C41.6328125,11.6848938 41.5104179,11.3411472 41.265625,11.0703125 C41.0208321,10.7994778 40.7109394,10.6302087 40.3359375,10.5625 C40.0598945,10.5104164 39.5052125,10.484375 38.671875,10.484375 L37.5546875,10.484375 Z M45.9765625,20 L45.9765625,8.640625 L48.2890625,8.640625 L48.2890625,18.0703125 L54.0390625,18.0703125 L54.0390625,20 L45.9765625,20 Z M57.2265625,20 L57.2265625,15.1796875 L53.03125,8.546875 L55.7421875,8.546875 L58.4375,13.078125 L61.078125,8.546875 L63.7421875,8.546875 L59.53125,15.1953125 L59.53125,20 L57.2265625,20 Z M69.0703125,20 L69.0703125,8.546875 L71.3203125,8.546875 L76.0078125,16.1953125 L76.0078125,8.546875 L78.15625,8.546875 L78.15625,20 L75.8359375,20 L71.21875,12.53125 L71.21875,20 L69.0703125,20 Z M80.1328125,14.34375 C80.1328125,13.1770775 80.3072899,12.1979206 80.65625,11.40625 C80.916668,10.8229137 81.2721332,10.2994815 81.7226562,9.8359375 C82.1731793,9.37239352 82.666664,9.02864695 83.203125,8.8046875 C83.9166702,8.50260266 84.7395787,8.3515625 85.671875,8.3515625 C87.3593834,8.3515625 88.7096304,8.87499477 89.7226562,9.921875 C90.7356821,10.9687552 91.2421875,12.4244698 91.2421875,14.2890625 C91.2421875,16.1380301 90.7395884,17.5846302 89.734375,18.6289062 C88.7291616,19.6731823 87.3854251,20.1953125 85.703125,20.1953125 C83.9999915,20.1953125 82.6458384,19.6757864 81.640625,18.6367188 C80.6354116,17.5976511 80.1328125,16.1666758 80.1328125,14.34375 L80.1328125,14.34375 Z M82.515625,14.265625 C82.515625,15.5625065 82.8151012,16.5455696 83.4140625,17.2148438 C84.0130238,17.8841179 84.7734329,18.21875 85.6953125,18.21875 C86.6171921,18.21875 87.373695,17.8867221 87.9648438,17.2226562 C88.5559925,16.5585904 88.8515625,15.5625066 88.8515625,14.234375 C88.8515625,12.9218684 88.563805,11.9427116 87.9882812,11.296875 C87.4127575,10.6510384 86.6484423,10.328125 85.6953125,10.328125 C84.7421827,10.328125 83.9739613,10.6549446 83.390625,11.3085938 C82.8072887,11.9622429 82.515625,12.9479101 82.515625,14.265625 L82.515625,14.265625 Z M95.625,20 L95.625,10.484375 L92.2265625,10.484375 L92.2265625,8.546875 L101.328125,8.546875 L101.328125,10.484375 L97.9375,10.484375 L97.9375,20 L95.625,20 Z M102.820312,20 L102.820312,8.546875 L111.3125,8.546875 L111.3125,10.484375 L105.132812,10.484375 L105.132812,13.0234375 L110.882812,13.0234375 L110.882812,14.953125 L105.132812,14.953125 L105.132812,18.0703125 L111.53125,18.0703125 L111.53125,20 L102.820312,20 Z M112.90625,16.2734375 L115.15625,16.0546875 C115.291667,16.8098996 115.566404,17.3645816 115.980469,17.71875 C116.394533,18.0729184 116.953121,18.25 117.65625,18.25 C118.401045,18.25 118.962238,18.0924495 119.339844,17.7773438 C119.71745,17.462238 119.90625,17.0937521 119.90625,16.671875 C119.90625,16.4010403 119.826824,16.1705739 119.667969,15.9804688 C119.509114,15.7903636 119.231773,15.6250007 118.835938,15.484375 C118.565103,15.3906245 117.947921,15.2239595 116.984375,14.984375 C115.744785,14.6770818 114.875002,14.2994814 114.375,13.8515625 C113.671871,13.221351 113.320312,12.4531295 113.320312,11.546875 C113.320312,10.9635387 113.485675,10.4179713 113.816406,9.91015625 C114.147137,9.40234121 114.623695,9.01562633 115.246094,8.75 C115.868493,8.48437367 116.619787,8.3515625 117.5,8.3515625 C118.937507,8.3515625 120.019528,8.66666352 120.746094,9.296875 C121.47266,9.92708648 121.854166,10.7682239 121.890625,11.8203125 L119.578125,11.921875 C119.479166,11.3333304 119.266929,10.9101575 118.941406,10.6523438 C118.615884,10.39453 118.127607,10.265625 117.476562,10.265625 C116.804684,10.265625 116.278648,10.4036445 115.898438,10.6796875 C115.653645,10.8567717 115.53125,11.0937485 115.53125,11.390625 C115.53125,11.6614597 115.645832,11.8932282 115.875,12.0859375 C116.166668,12.3307304 116.874994,12.5859362 118,12.8515625 C119.125006,13.1171888 119.957029,13.3919257 120.496094,13.6757812 C121.035159,13.9596368 121.45703,14.3476538 121.761719,14.8398438 C122.066408,15.3320337 122.21875,15.9401005 122.21875,16.6640625 C122.21875,17.3203158 122.03646,17.934893 121.671875,18.5078125 C121.30729,19.080732 120.79167,19.506509 120.125,19.7851562 C119.45833,20.0638035 118.627609,20.203125 117.632812,20.203125 C116.184889,20.203125 115.072921,19.8684929 114.296875,19.1992188 C113.520829,18.5299446 113.057292,17.5546939 112.90625,16.2734375 L112.90625,16.2734375 Z" id="APPLY-NOTES-Copy" fill="#4A4A4A" sketch:type="MSShapeGroup"></path>
    </g>
</svg>