<?xml version="1.0" encoding="UTF-8" standalone="no"?>
<svg width="34px" height="37px" viewBox="0 0 34 37" version="1.1" xmlns="http://www.w3.org/2000/svg" xmlns:xlink="http://www.w3.org/1999/xlink" xmlns:sketch="http://www.bohemiancoding.com/sketch/ns">
    <!-- Generator: Sketch 3.3.3 (12072) - http://www.bohemiancoding.com/sketch -->
    <title>Untitled 2</title>
    <desc>Created with Sketch.</desc>
    <defs></defs>
    <g id="Page-1" stroke="none" stroke-width="1" fill="none" fill-rule="evenodd" sketch:type="MSPage">
        <g id="Glyphicons-/-inbox" sketch:type="MSLayerGroup" fill="#E0E0E0">
            <path d="M0.443,9.621 L0.443,5.121 C0.443,4.701 0.588,4.346 0.879,4.055 C1.168,3.766 1.523,3.621 1.943,3.621 L6.443,3.621 L6.443,0.621 L9.443,0.621 L9.443,3.621 L24.443,3.621 L24.443,0.621 L27.443,0.621 L27.443,3.621 L31.943,3.621 C32.363,3.621 32.719,3.766 33.008,4.055 C33.298,4.346 33.443,4.701 33.443,5.121 L33.443,9.621 L0.443,9.621 L0.443,9.621 L0.443,9.621 L0.443,9.621 Z M33.443,12.621 L33.443,35.121 C33.443,35.521 33.298,35.871 33.008,36.17 C32.719,36.471 32.363,36.621 31.943,36.621 L1.943,36.621 C1.523,36.621 1.168,36.471 0.879,36.17 C0.588,35.871 0.443,35.521 0.443,35.121 L0.443,12.621 L33.443,12.621 L33.443,12.621 L33.443,12.621 L33.443,12.621 Z M3.443,21.621 L6.443,21.621 L6.443,18.621 L3.443,18.621 L3.443,18.621 L3.443,21.621 L3.443,21.621 Z M3.443,27.621 L6.443,27.621 L6.443,24.621 L3.443,24.621 L3.443,24.621 L3.443,27.621 L3.443,27.621 Z M3.443,33.621 L6.443,33.621 L6.443,30.621 L3.443,30.621 L3.443,30.621 L3.443,33.621 L3.443,33.621 Z M9.443,21.621 L12.443,21.621 L12.443,18.621 L9.443,18.621 L9.443,18.621 L9.443,21.621 L9.443,21.621 Z M9.443,27.621 L12.443,27.621 L12.443,24.621 L9.443,24.621 L9.443,24.621 L9.443,27.621 L9.443,27.621 Z M9.443,33.621 L12.443,33.621 L12.443,30.621 L9.443,30.621 L9.443,30.621 L9.443,33.621 L9.443,33.621 Z M15.443,21.621 L18.443,21.621 L18.443,18.621 L15.443,18.621 L15.443,18.621 L15.443,21.621 L15.443,21.621 Z M15.443,27.621 L18.443,27.621 L18.443,24.621 L15.443,24.621 L15.443,24.621 L15.443,27.621 L15.443,27.621 Z M15.443,33.621 L18.443,33.621 L18.443,30.621 L15.443,30.621 L15.443,30.621 L15.443,33.621 L15.443,33.621 Z M21.443,21.621 L24.443,21.621 L24.443,18.621 L21.443,18.621 L21.443,18.621 L21.443,21.621 L21.443,21.621 Z M21.443,27.621 L24.443,27.621 L24.443,24.621 L21.443,24.621 L21.443,24.621 L21.443,27.621 L21.443,27.621 Z M21.443,33.621 L24.443,33.621 L24.443,30.621 L21.443,30.621 L21.443,30.621 L21.443,33.621 L21.443,33.621 Z M27.443,21.621 L30.443,21.621 L30.443,18.621 L27.443,18.621 L27.443,18.621 L27.443,21.621 L27.443,21.621 Z M27.443,27.621 L30.443,27.621 L30.443,24.621 L27.443,24.621 L27.443,24.621 L27.443,27.621 L27.443,27.621 Z M27.443,33.621 L30.443,33.621 L30.443,30.621 L27.443,30.621 L27.443,30.621 L27.443,33.621 L27.443,33.621 Z" id="Fill-192" sketch:type="MSShapeGroup"></path>
        </g>
    </g>
</svg>