<?xml version="1.0" encoding="UTF-8" standalone="no"?>
<svg width="44px" height="15px" viewBox="0 0 44 15" version="1.1" xmlns="http://www.w3.org/2000/svg" xmlns:xlink="http://www.w3.org/1999/xlink" xmlns:sketch="http://www.bohemiancoding.com/sketch/ns">
    <!-- Generator: Sketch 3.3.3 (12072) - http://www.bohemiancoding.com/sketch -->
    <title>CallOn</title>
    <desc>Created with Sketch.</desc>
    <defs></defs>
    <g id="Page-1" stroke="none" stroke-width="1" fill="none" fill-rule="evenodd" sketch:type="MSPage">
        <path d="M10.0273438,9.48242188 L11.7324219,9.91308594 C11.3749982,11.3134836 10.7319382,12.381344 9.80322266,13.1166992 C8.87450708,13.8520545 7.73926452,14.2197266 6.39746094,14.2197266 C5.00878212,14.2197266 3.87939888,13.9370145 3.00927734,13.371582 C2.13915581,12.8061495 1.47705305,11.98731 1.02294922,10.9150391 C0.568845386,9.84276808 0.341796875,8.6914124 0.341796875,7.4609375 C0.341796875,6.11913392 0.598141968,4.94873546 1.11083984,3.94970703 C1.62353772,2.9506786 2.35302261,2.19189712 3.29931641,1.67333984 C4.2456102,1.15478256 5.28710369,0.895507812 6.42382813,0.895507812 C7.71289707,0.895507812 8.79687061,1.22362953 9.67578125,1.87988281 C10.5546919,2.53613609 11.1669905,3.45897843 11.5126953,4.6484375 L9.83398438,5.04394531 C9.53515476,4.10644063 9.10156534,3.42383026 8.53320312,2.99609375 C7.96484091,2.56835724 7.25000431,2.35449219 6.38867188,2.35449219 C5.39843255,2.35449219 4.57080411,2.5917945 3.90576172,3.06640625 C3.24071933,3.541018 2.77343885,4.17821866 2.50390625,4.97802734 C2.23437365,5.77783603 2.09960938,6.60253481 2.09960938,7.45214844 C2.09960938,8.54785704 2.25927575,9.50439044 2.57861328,10.3217773 C2.89795082,11.1391642 3.39452788,11.749998 4.06835938,12.1542969 C4.74219087,12.5585958 5.47167576,12.7607422 6.25683594,12.7607422 C7.21191884,12.7607422 8.0205045,12.4853543 8.68261719,11.9345703 C9.34472987,11.3837863 9.79296758,10.5664117 10.0273438,9.48242188 L10.0273438,9.48242188 Z M12.4179688,14 L17.3662109,1.11523438 L19.203125,1.11523438 L24.4765625,14 L22.5341797,14 L21.03125,10.0976562 L15.6435547,10.0976562 L14.2285156,14 L12.4179688,14 Z M16.1357422,8.70898438 L20.5039062,8.70898438 L19.1591797,5.140625 C18.7490214,4.05663521 18.4443369,3.16601911 18.2451172,2.46875 C18.0810539,3.29492601 17.8496109,4.1152303 17.5507812,4.9296875 L16.1357422,8.70898438 Z M25.7685547,14 L25.7685547,1.11523438 L27.4736328,1.11523438 L27.4736328,12.4794922 L33.8193359,12.4794922 L33.8193359,14 L25.7685547,14 Z M35.7792969,14 L35.7792969,1.11523438 L37.484375,1.11523438 L37.484375,12.4794922 L43.8300781,12.4794922 L43.8300781,14 L35.7792969,14 Z" id="-CALL" fill="#82B9F9" sketch:type="MSShapeGroup"></path>
    </g>
</svg>