<?xml version="1.0" encoding="UTF-8" standalone="no"?>
<svg width="46px" height="34px" viewBox="0 0 46 34" version="1.1" xmlns="http://www.w3.org/2000/svg" xmlns:xlink="http://www.w3.org/1999/xlink" xmlns:sketch="http://www.bohemiancoding.com/sketch/ns">
    <!-- Generator: Sketch 3.3.3 (12072) - http://www.bohemiancoding.com/sketch -->
    <title>Untitled 2</title>
    <desc>Created with Sketch.</desc>
    <defs></defs>
    <g id="Page-1" stroke="none" stroke-width="1" fill="none" fill-rule="evenodd" sketch:type="MSPage">
        <g id="Glyphicons-/-inbox" sketch:type="MSLayerGroup" transform="translate(0.000000, 1.000000)" fill="#E0E0E0">
            <path d="M6.474,8.621 L0.474,20.621 L0.474,2.621 L6.474,2.621 C6.474,1.801 6.769,1.096 7.358,0.505 C7.948,-0.084 8.653,-0.379 9.474,-0.379 L18.474,-0.379 C19.293,-0.379 19.998,-0.084 20.588,0.505 C21.178,1.096 21.474,1.801 21.474,2.621 L36.474,2.621 L36.474,8.621 L6.474,8.621 L6.474,8.621 L6.474,8.621 L6.474,8.621 Z M45.474,11.621 L36.474,32.621 L0.474,32.621 L9.474,11.621 L45.474,11.621 L45.474,11.621 Z" id="Fill-115" sketch:type="MSShapeGroup"></path>
        </g>
    </g>
</svg>