<?xml version="1.0" encoding="UTF-8" standalone="no"?>
<svg width="49px" height="15px" viewBox="0 0 49 15" version="1.1" xmlns="http://www.w3.org/2000/svg" xmlns:xlink="http://www.w3.org/1999/xlink" xmlns:sketch="http://www.bohemiancoding.com/sketch/ns">
    <!-- Generator: Sketch 3.3.3 (12072) - http://www.bohemiancoding.com/sketch -->
    <title>HoldOn</title>
    <desc>Created with Sketch.</desc>
    <defs></defs>
    <g id="Page-1" stroke="none" stroke-width="1" fill="none" fill-rule="evenodd" sketch:type="MSPage">
        <path d="M0.88671875,14 L0.88671875,1.11523438 L2.59179688,1.11523438 L2.59179688,6.40625 L9.2890625,6.40625 L9.2890625,1.11523438 L10.9941406,1.11523438 L10.9941406,14 L9.2890625,14 L9.2890625,7.92675781 L2.59179688,7.92675781 L2.59179688,14 L0.88671875,14 Z M13.3144531,7.72460938 C13.3144531,5.58592681 13.8886661,3.91162714 15.0371094,2.70166016 C16.1855526,1.49169317 17.6679597,0.88671875 19.484375,0.88671875 C20.6738341,0.88671875 21.746089,1.1708956 22.7011719,1.73925781 C23.6562548,2.30762003 24.3842748,3.10009257 24.8852539,4.11669922 C25.386233,5.13330586 25.6367188,6.28612637 25.6367188,7.57519531 C25.6367188,8.88184247 25.3730495,10.0507761 24.8457031,11.0820312 C24.3183567,12.1132864 23.5712939,12.8940403 22.6044922,13.4243164 C21.6376905,13.9545925 20.5947322,14.2197266 19.4755859,14.2197266 C18.2626892,14.2197266 17.1787157,13.9267607 16.2236328,13.3408203 C15.2685499,12.7548799 14.5449243,11.9550832 14.0527344,10.9414062 C13.5605444,9.92772931 13.3144531,8.8554744 13.3144531,7.72460938 L13.3144531,7.72460938 Z M15.0722656,7.75097656 C15.0722656,9.3037187 15.4897419,10.526851 16.324707,11.4204102 C17.1596721,12.3139693 18.207025,12.7607422 19.4667969,12.7607422 C20.7500064,12.7607422 21.8061482,12.3095748 22.6352539,11.4072266 C23.4643596,10.5048783 23.8789062,9.22461767 23.8789062,7.56640625 C23.8789062,6.51757288 23.7016619,5.60205469 23.347168,4.81982422 C22.992674,4.03759375 22.4741245,3.4311545 21.7915039,3.00048828 C21.1088833,2.56982207 20.3427777,2.35449219 19.4931641,2.35449219 C18.2861268,2.35449219 17.2475629,2.76903882 16.3774414,3.59814453 C15.5073199,4.42725024 15.0722656,5.81151374 15.0722656,7.75097656 L15.0722656,7.75097656 Z M27.7636719,14 L27.7636719,1.11523438 L29.46875,1.11523438 L29.46875,12.4794922 L35.8144531,12.4794922 L35.8144531,14 L27.7636719,14 Z M37.8447266,14 L37.8447266,1.11523438 L42.2832031,1.11523438 C43.2851613,1.11523438 44.0498021,1.1767572 44.5771484,1.29980469 C45.3154334,1.46972741 45.9453099,1.77734152 46.4667969,2.22265625 C47.1464878,2.79687787 47.6547835,3.53075725 47.9916992,4.42431641 C48.328615,5.31787556 48.4970703,6.33886145 48.4970703,7.48730469 C48.4970703,8.46582521 48.3828136,9.33300403 48.1542969,10.0888672 C47.9257801,10.8447303 47.6328143,11.4702124 47.2753906,11.965332 C46.917967,12.4604517 46.5268576,12.8500962 46.1020508,13.1342773 C45.677244,13.4184585 45.1645538,13.6337883 44.5639648,13.7802734 C43.9633759,13.9267585 43.2734414,14 42.4941406,14 L37.8447266,14 Z M39.5498047,12.4794922 L42.3007812,12.4794922 C43.1503949,12.4794922 43.8168921,12.4003914 44.300293,12.2421875 C44.7836938,12.0839836 45.1689439,11.8613296 45.4560547,11.5742188 C45.8603536,11.1699199 46.1752918,10.6264683 46.4008789,9.94384766 C46.626466,9.26122706 46.7392578,8.43359861 46.7392578,7.4609375 C46.7392578,6.11327451 46.5180686,5.07764034 46.0756836,4.35400391 C45.6332986,3.63036748 45.0957063,3.14550904 44.4628906,2.89941406 C44.0058571,2.72363193 43.2705129,2.63574219 42.2568359,2.63574219 L39.5498047,2.63574219 L39.5498047,12.4794922 Z" id="-HOLD" fill="#FCFCFC" sketch:type="MSShapeGroup"></path>
    </g>
</svg>