<?xml version="1.0" encoding="UTF-8" standalone="no"?>
<svg width="37px" height="37px" viewBox="0 0 37 37" version="1.1" xmlns="http://www.w3.org/2000/svg" xmlns:xlink="http://www.w3.org/1999/xlink" xmlns:sketch="http://www.bohemiancoding.com/sketch/ns">
    <!-- Generator: Sketch 3.3.3 (12072) - http://www.bohemiancoding.com/sketch -->
    <title>Untitled 2</title>
    <desc>Created with Sketch.</desc>
    <defs></defs>
    <g id="Page-1" stroke="none" stroke-width="1" fill="none" fill-rule="evenodd" sketch:type="MSPage">
        <g id="Glyphicons-/-inbox" sketch:type="MSLayerGroup" fill="#E0E0E0">
            <path d="M0.443,21.621 L6.443,0.621 L30.443,0.621 C34.423,14.621 36.423,21.621 36.443,21.621 L36.443,35.871 C36.443,36.091 36.373,36.271 36.233,36.411 C36.093,36.551 35.913,36.621 35.693,36.621 L1.193,36.621 C0.973,36.621 0.793,36.551 0.653,36.411 C0.514,36.271 0.443,36.091 0.443,35.871 L0.443,21.621 L0.443,21.621 L0.443,21.621 L0.443,21.621 Z M27.533,6.621 L9.354,6.621 L6.443,21.621 L12.443,21.621 L13.943,27.621 L22.943,27.621 L24.443,21.621 L30.443,21.621 L27.533,6.621 L27.533,6.621 Z" id="Fill-34" sketch:type="MSShapeGroup"></path>
        </g>
    </g>
</svg>