<?xml version="1.0" encoding="UTF-8" standalone="no"?>
<svg width="182px" height="27px" viewBox="0 0 182 27" version="1.1" xmlns="http://www.w3.org/2000/svg" xmlns:xlink="http://www.w3.org/1999/xlink" xmlns:sketch="http://www.bohemiancoding.com/sketch/ns">
    <!-- Generator: Sketch 3.3.3 (12072) - http://www.bohemiancoding.com/sketch -->
    <title>Untitled</title>
    <desc>Created with Sketch.</desc>
    <defs></defs>
    <g id="Page-1" stroke="none" stroke-width="1" fill="none" fill-rule="evenodd" sketch:type="MSPage">
        <path d="M181.102583,27 L171.781808,9.6827834 C168.906212,4.34016892 161.648189,0 155.576618,0 L10.9935517,0 C4.91739753,0 0,4.92817222 0,11.0073807 L0,27 L181.102583,27 Z" id="Rectangle-94-Copy" stroke="#979797" fill="#FFF4DA" sketch:type="MSShapeGroup"></path>
        <path d="M14.265625,20 L14.265625,8.640625 L16.578125,8.640625 L16.578125,18.0703125 L22.328125,18.0703125 L22.328125,20 L14.265625,20 Z M34.3046875,20 L31.7890625,20 L30.7890625,17.3984375 L26.2109375,17.3984375 L25.265625,20 L22.8125,20 L27.2734375,8.546875 L29.71875,8.546875 L34.3046875,20 Z M30.046875,15.46875 L28.46875,11.21875 L26.921875,15.46875 L30.046875,15.46875 Z M36.921875,20 L36.921875,10.484375 L33.5234375,10.484375 L33.5234375,8.546875 L42.625,8.546875 L42.625,10.484375 L39.234375,10.484375 L39.234375,20 L36.921875,20 Z M44.1171875,20 L44.1171875,8.546875 L52.609375,8.546875 L52.609375,10.484375 L46.4296875,10.484375 L46.4296875,13.0234375 L52.1796875,13.0234375 L52.1796875,14.953125 L46.4296875,14.953125 L46.4296875,18.0703125 L52.828125,18.0703125 L52.828125,20 L44.1171875,20 Z M54.203125,16.2734375 L56.453125,16.0546875 C56.5885423,16.8098996 56.8632792,17.3645816 57.2773438,17.71875 C57.6914083,18.0729184 58.2499965,18.25 58.953125,18.25 C59.6979204,18.25 60.2591127,18.0924495 60.6367188,17.7773438 C61.0143248,17.462238 61.203125,17.0937521 61.203125,16.671875 C61.203125,16.4010403 61.1236987,16.1705739 60.9648438,15.9804688 C60.8059888,15.7903636 60.5286478,15.6250007 60.1328125,15.484375 C59.8619778,15.3906245 59.2447965,15.2239595 58.28125,14.984375 C57.0416605,14.6770818 56.1718775,14.2994814 55.671875,13.8515625 C54.9687465,13.221351 54.6171875,12.4531295 54.6171875,11.546875 C54.6171875,10.9635387 54.7825504,10.4179713 55.1132812,9.91015625 C55.4440121,9.40234121 55.9205698,9.01562633 56.5429688,8.75 C57.1653677,8.48437367 57.9166623,8.3515625 58.796875,8.3515625 C60.2343822,8.3515625 61.3164026,8.66666352 62.0429688,9.296875 C62.7695349,9.92708648 63.1510415,10.7682239 63.1875,11.8203125 L60.875,11.921875 C60.7760412,11.3333304 60.5638037,10.9101575 60.2382812,10.6523438 C59.9127588,10.39453 59.4244824,10.265625 58.7734375,10.265625 C58.1015591,10.265625 57.5755227,10.4036445 57.1953125,10.6796875 C56.9505196,10.8567717 56.828125,11.0937485 56.828125,11.390625 C56.828125,11.6614597 56.9427072,11.8932282 57.171875,12.0859375 C57.4635431,12.3307304 58.1718694,12.5859362 59.296875,12.8515625 C60.4218806,13.1171888 61.2539036,13.3919257 61.7929688,13.6757812 C62.3320339,13.9596368 62.7539047,14.3476538 63.0585938,14.8398438 C63.3632828,15.3320337 63.515625,15.9401005 63.515625,16.6640625 C63.515625,17.3203158 63.3333352,17.934893 62.96875,18.5078125 C62.6041648,19.080732 62.088545,19.506509 61.421875,19.7851562 C60.755205,20.0638035 59.9244841,20.203125 58.9296875,20.203125 C57.4817636,20.203125 56.3697955,19.8684929 55.59375,19.1992188 C54.8177045,18.5299446 54.3541674,17.5546939 54.203125,16.2734375 L54.203125,16.2734375 Z M68.0390625,20 L68.0390625,10.484375 L64.640625,10.484375 L64.640625,8.546875 L73.7421875,8.546875 L73.7421875,10.484375 L70.3515625,10.484375 L70.3515625,20 L68.0390625,20 Z M79.6875,20 L79.6875,8.546875 L84.5546875,8.546875 C85.778652,8.546875 86.667966,8.64973855 87.2226562,8.85546875 C87.7773465,9.06119895 88.2213525,9.4270807 88.5546875,9.953125 C88.8880225,10.4791693 89.0546875,11.0807258 89.0546875,11.7578125 C89.0546875,12.6171918 88.8020859,13.3268201 88.296875,13.8867188 C87.7916641,14.4466174 87.0364634,14.7994784 86.03125,14.9453125 C86.5312525,15.2369806 86.9440088,15.5572899 87.2695312,15.90625 C87.5950537,16.2552101 88.0338514,16.8749955 88.5859375,17.765625 L89.984375,20 L87.21875,20 L85.546875,17.5078125 C84.953122,16.617183 84.5468761,16.0559907 84.328125,15.8242188 C84.1093739,15.5924468 83.8776054,15.4335942 83.6328125,15.3476562 C83.3880196,15.2617183 83.0000027,15.21875 82.46875,15.21875 L82,15.21875 L82,20 L79.6875,20 Z M82,13.390625 L83.7109375,13.390625 C84.820318,13.390625 85.5130195,13.3437505 85.7890625,13.25 C86.0651055,13.1562495 86.2812492,12.9947928 86.4375,12.765625 C86.5937508,12.5364572 86.671875,12.2500017 86.671875,11.90625 C86.671875,11.5208314 86.5690114,11.2096366 86.3632812,10.9726562 C86.1575511,10.7356759 85.8671894,10.5859378 85.4921875,10.5234375 C85.3046866,10.4973957 84.7421922,10.484375 83.8046875,10.484375 L82,10.484375 L82,13.390625 Z M91.234375,20 L91.234375,8.546875 L99.7265625,8.546875 L99.7265625,10.484375 L93.546875,10.484375 L93.546875,13.0234375 L99.296875,13.0234375 L99.296875,14.953125 L93.546875,14.953125 L93.546875,18.0703125 L99.9453125,18.0703125 L99.9453125,20 L91.234375,20 Z M101.320312,16.2734375 L103.570312,16.0546875 C103.70573,16.8098996 103.980467,17.3645816 104.394531,17.71875 C104.808596,18.0729184 105.367184,18.25 106.070312,18.25 C106.815108,18.25 107.3763,18.0924495 107.753906,17.7773438 C108.131512,17.462238 108.320312,17.0937521 108.320312,16.671875 C108.320312,16.4010403 108.240886,16.1705739 108.082031,15.9804688 C107.923176,15.7903636 107.645835,15.6250007 107.25,15.484375 C106.979165,15.3906245 106.361984,15.2239595 105.398438,14.984375 C104.158848,14.6770818 103.289065,14.2994814 102.789062,13.8515625 C102.085934,13.221351 101.734375,12.4531295 101.734375,11.546875 C101.734375,10.9635387 101.899738,10.4179713 102.230469,9.91015625 C102.5612,9.40234121 103.037757,9.01562633 103.660156,8.75 C104.282555,8.48437367 105.03385,8.3515625 105.914062,8.3515625 C107.35157,8.3515625 108.43359,8.66666352 109.160156,9.296875 C109.886722,9.92708648 110.268229,10.7682239 110.304688,11.8203125 L107.992188,11.921875 C107.893229,11.3333304 107.680991,10.9101575 107.355469,10.6523438 C107.029946,10.39453 106.54167,10.265625 105.890625,10.265625 C105.218747,10.265625 104.69271,10.4036445 104.3125,10.6796875 C104.067707,10.8567717 103.945312,11.0937485 103.945312,11.390625 C103.945312,11.6614597 104.059895,11.8932282 104.289062,12.0859375 C104.580731,12.3307304 105.289057,12.5859362 106.414062,12.8515625 C107.539068,13.1171888 108.371091,13.3919257 108.910156,13.6757812 C109.449221,13.9596368 109.871092,14.3476538 110.175781,14.8398438 C110.48047,15.3320337 110.632812,15.9401005 110.632812,16.6640625 C110.632812,17.3203158 110.450523,17.934893 110.085938,18.5078125 C109.721352,19.080732 109.205732,19.506509 108.539062,19.7851562 C107.872393,20.0638035 107.041672,20.203125 106.046875,20.203125 C104.598951,20.203125 103.486983,19.8684929 102.710938,19.1992188 C101.934892,18.5299446 101.471355,17.5546939 101.320312,16.2734375 L101.320312,16.2734375 Z M112.5625,8.546875 L114.875,8.546875 L114.875,14.75 C114.875,15.7343799 114.903646,16.3723944 114.960938,16.6640625 C115.059896,17.1328148 115.295571,17.5091132 115.667969,17.7929688 C116.040366,18.0768243 116.549476,18.21875 117.195312,18.21875 C117.851566,18.21875 118.346352,18.0846368 118.679688,17.8164062 C119.013023,17.5481757 119.213541,17.218752 119.28125,16.828125 C119.348959,16.437498 119.382812,15.789067 119.382812,14.8828125 L119.382812,8.546875 L121.695312,8.546875 L121.695312,14.5625 C121.695312,15.9375069 121.632813,16.9088513 121.507812,17.4765625 C121.382812,18.0442737 121.152345,18.5234355 120.816406,18.9140625 C120.480467,19.3046895 120.031253,19.6158843 119.46875,19.8476562 C118.906247,20.0794282 118.17188,20.1953125 117.265625,20.1953125 C116.17187,20.1953125 115.342451,20.0690117 114.777344,19.8164062 C114.212237,19.5638008 113.765627,19.2356791 113.4375,18.8320312 C113.109373,18.4283834 112.89323,18.0052105 112.789062,17.5625 C112.63802,16.9062467 112.5625,15.9375064 112.5625,14.65625 L112.5625,8.546875 Z M124.195312,20 L124.195312,8.640625 L126.507812,8.640625 L126.507812,18.0703125 L132.257812,18.0703125 L132.257812,20 L124.195312,20 Z M135.296875,20 L135.296875,10.484375 L131.898438,10.484375 L131.898438,8.546875 L141,8.546875 L141,10.484375 L137.609375,10.484375 L137.609375,20 L135.296875,20 Z M141.90625,16.2734375 L144.15625,16.0546875 C144.291667,16.8098996 144.566404,17.3645816 144.980469,17.71875 C145.394533,18.0729184 145.953121,18.25 146.65625,18.25 C147.401045,18.25 147.962238,18.0924495 148.339844,17.7773438 C148.71745,17.462238 148.90625,17.0937521 148.90625,16.671875 C148.90625,16.4010403 148.826824,16.1705739 148.667969,15.9804688 C148.509114,15.7903636 148.231773,15.6250007 147.835938,15.484375 C147.565103,15.3906245 146.947921,15.2239595 145.984375,14.984375 C144.744785,14.6770818 143.875002,14.2994814 143.375,13.8515625 C142.671871,13.221351 142.320312,12.4531295 142.320312,11.546875 C142.320312,10.9635387 142.485675,10.4179713 142.816406,9.91015625 C143.147137,9.40234121 143.623695,9.01562633 144.246094,8.75 C144.868493,8.48437367 145.619787,8.3515625 146.5,8.3515625 C147.937507,8.3515625 149.019528,8.66666352 149.746094,9.296875 C150.47266,9.92708648 150.854166,10.7682239 150.890625,11.8203125 L148.578125,11.921875 C148.479166,11.3333304 148.266929,10.9101575 147.941406,10.6523438 C147.615884,10.39453 147.127607,10.265625 146.476562,10.265625 C145.804684,10.265625 145.278648,10.4036445 144.898438,10.6796875 C144.653645,10.8567717 144.53125,11.0937485 144.53125,11.390625 C144.53125,11.6614597 144.645832,11.8932282 144.875,12.0859375 C145.166668,12.3307304 145.874994,12.5859362 147,12.8515625 C148.125006,13.1171888 148.957029,13.3919257 149.496094,13.6757812 C150.035159,13.9596368 150.45703,14.3476538 150.761719,14.8398438 C151.066408,15.3320337 151.21875,15.9401005 151.21875,16.6640625 C151.21875,17.3203158 151.03646,17.934893 150.671875,18.5078125 C150.30729,19.080732 149.79167,19.506509 149.125,19.7851562 C148.45833,20.0638035 147.627609,20.203125 146.632812,20.203125 C145.184889,20.203125 144.072921,19.8684929 143.296875,19.1992188 C142.520829,18.5299446 142.057292,17.5546939 141.90625,16.2734375 L141.90625,16.2734375 Z" id="LATEST-RESULTS" fill="#4A4A4A" sketch:type="MSShapeGroup"></path>
    </g>
</svg>