<?xml version="1.0" encoding="UTF-8" standalone="no"?>
<svg width="1348px" height="80px" viewBox="0 0 1348 80" version="1.1" xmlns="http://www.w3.org/2000/svg" xmlns:xlink="http://www.w3.org/1999/xlink" xmlns:sketch="http://www.bohemiancoding.com/sketch/ns">
    <!-- Generator: Sketch 3.3.3 (12072) - http://www.bohemiancoding.com/sketch -->
    <title>Group + Oval 15 + Rectangle 11 + Oval 14 + Oval 16 + BGK + Log Off Copy</title>
    <desc>Created with Sketch.</desc>
    <defs>
        <linearGradient x1="50%" y1="0%" x2="50%" y2="100%" id="linearGradient-1">
            <stop stop-color="#91A0FF" offset="0%"></stop>
            <stop stop-color="#BFC4CB" offset="52.3828125%"></stop>
            <stop stop-color="#DEDEDE" offset="100%"></stop>
        </linearGradient>
        <linearGradient x1="50%" y1="0%" x2="50%" y2="100%" id="linearGradient-2">
            <stop stop-color="#FFFFFF" offset="0%"></stop>
            <stop stop-color="#DCDCDD" offset="100%"></stop>
        </linearGradient>
        <linearGradient x1="50%" y1="0%" x2="50%" y2="100%" id="linearGradient-3">
            <stop stop-color="#FFFFFF" offset="0%"></stop>
            <stop stop-color="#DEDEDF" offset="82.0954907%"></stop>
            <stop stop-color="#DCDCDD" offset="100%"></stop>
        </linearGradient>
        <linearGradient x1="50%" y1="116.757812%" x2="50%" y2="-24.3229167%" id="linearGradient-4">
            <stop stop-color="#FFFFFF" offset="0%"></stop>
            <stop stop-color="#DCDCDD" offset="100%"></stop>
        </linearGradient>
    </defs>
    <g id="Page-1" stroke="none" stroke-width="1" fill="none" fill-rule="evenodd" sketch:type="MSPage">
        <g id="Group-+-Oval-15-+-Rectangle-11-+-Oval-14-+-Oval-16-+-BGK-+-Log-Off-Copy" sketch:type="MSLayerGroup">
            <g id="Group" sketch:type="MSShapeGroup">
                <rect id="Rectangle-1" stroke="#979797" fill="url(#linearGradient-1)" x="0" y="0" width="1348" height="80"></rect>
                <path d="M342.5,40.5 L364.5,40.5" id="Line" stroke="#FCFCFC" stroke-linecap="square"></path>
                <path d="M540.5,40.5 L562.5,40.5" id="Line-Copy" stroke="#FCFCFC" stroke-linecap="square"></path>
                <path d="M474.5,40.5 L496.5,40.5" id="Line-Copy-4" stroke="#FCFCFC" stroke-linecap="square"></path>
                <path d="M408.5,40.5 L430.5,40.5" id="Line-Copy-5" stroke="#FCFCFC" stroke-linecap="square"></path>
                <path d="M342.5,40.5 L364.5,40.5" id="Line-Copy-3" stroke="#FCFCFC" stroke-linecap="square"></path>
                <path d="M342.5,40.5 L364.5,40.5" id="Line-Copy-2" stroke="#FCFCFC" stroke-linecap="square"></path>
                <circle id="Job-Order-Numbers-Copy-2" stroke="#FCFCFC" fill="#AAAABE" cx="387" cy="40" r="22"></circle>
                <circle id="Job-Order-Numbers-Copy-2" stroke="#FCFCFC" fill="#AAAABE" cx="453" cy="40" r="22"></circle>
                <circle id="Job-Order-Numbers-Copy-3" stroke="#FCFCFC" fill="#AAAABE" cx="519" cy="40" r="22"></circle>
                <circle id="Job-Order-Numbers-Copy-4" stroke="#FCFCFC" fill="#AAAABE" cx="585" cy="40" r="22"></circle>
                <path d="M392.15625,32.0390625 C393.359381,33.1875057 394.027343,34.4921802 394.160156,35.953125 L391.886719,35.953125 C391.628905,34.8437445 391.115238,33.964847 390.345703,33.3164062 C389.576168,32.6679655 388.496101,32.34375 387.105469,32.34375 C385.410148,32.34375 384.041021,32.9394472 382.998047,34.1308594 C381.955073,35.3222716 381.433594,37.1484252 381.433594,39.609375 C381.433594,41.6250101 381.904292,43.2597594 382.845703,44.5136719 C383.787114,45.7675844 385.191397,46.3945312 387.058594,46.3945312 C388.777352,46.3945312 390.085933,45.7343816 390.984375,44.4140625 C391.46094,43.7187465 391.816405,42.8046932 392.050781,41.671875 L394.324219,41.671875 C394.121093,43.4843841 393.449224,45.0039001 392.308594,46.2304688 C390.941399,47.7070386 389.097668,48.4453125 386.777344,48.4453125 C384.777334,48.4453125 383.097663,47.8398498 381.738281,46.6289062 C379.94921,45.0273357 379.054688,42.5547042 379.054688,39.2109375 C379.054688,36.6718623 379.726556,34.5898519 381.070312,32.9648438 C382.523445,31.1992099 384.527331,30.3164062 387.082031,30.3164062 C389.26173,30.3164062 390.953119,30.8906193 392.15625,32.0390625 L392.15625,32.0390625 Z" id="C" stroke="url(#linearGradient-2)" fill="url(#linearGradient-2)"></path>
                <path d="M448.351563,42.4453125 C448.40625,43.4218799 448.636717,44.2148407 449.042969,44.8242188 C449.81641,45.9648495 451.179678,46.5351562 453.132813,46.5351562 C454.007817,46.5351562 454.804684,46.4101575 455.523438,46.1601562 C456.914069,45.6757788 457.609375,44.8086 457.609375,43.5585938 C457.609375,42.6210891 457.316409,41.953127 456.730469,41.5546875 C456.136716,41.1640605 455.207038,40.8242202 453.941406,40.5351562 L451.609375,40.0078125 C450.08593,39.6640608 449.007816,39.2851583 448.375,38.8710938 C447.281245,38.1523402 446.734375,37.0781321 446.734375,35.6484375 C446.734375,34.1015548 447.269526,32.8320362 448.339844,31.8398438 C449.410162,30.8476513 450.925771,30.3515625 452.886719,30.3515625 C454.691415,30.3515625 456.224603,30.787105 457.486328,31.6582031 C458.748053,32.5293012 459.378906,33.9218654 459.378906,35.8359375 L457.1875,35.8359375 C457.070312,34.9140579 456.820314,34.2070337 456.4375,33.7148438 C455.726559,32.8164018 454.51954,32.3671875 452.816406,32.3671875 C451.441399,32.3671875 450.453128,32.6562471 449.851563,33.234375 C449.249997,33.8125029 448.949219,34.4843712 448.949219,35.25 C448.949219,36.0937542 449.300778,36.7109355 450.003906,37.1015625 C450.464846,37.3515637 451.507804,37.6640606 453.132813,38.0390625 L455.546875,38.5898438 C456.710943,38.8554701 457.609372,39.2187477 458.242188,39.6796875 C459.335943,40.484379 459.882813,41.6523361 459.882813,43.1835938 C459.882813,45.0898533 459.18946,46.4531209 457.802734,47.2734375 C456.416009,48.0937541 454.804697,48.5039062 452.96875,48.5039062 C450.828114,48.5039062 449.15235,47.9570367 447.941406,46.8632812 C446.730463,45.7773383 446.136719,44.3046968 446.160156,42.4453125 L448.351563,42.4453125 Z" id="S" stroke="url(#linearGradient-2)" fill="url(#linearGradient-2)"></path>
                <path d="M513.050781,30.7851562 L525.601562,30.7851562 L525.601562,32.8945312 L515.324219,32.8945312 L515.324219,38.1210938 L524.828125,38.1210938 L524.828125,40.1132812 L515.324219,40.1132812 L515.324219,45.9492188 L525.777344,45.9492188 L525.777344,48 L513.050781,48 L513.050781,30.7851562 Z" id="E" stroke="url(#linearGradient-2)" fill="url(#linearGradient-2)"></path>
                <path d="M580.359375,30.7851562 L580.359375,41.4257812 C580.359375,42.6757875 580.593748,43.7148396 581.0625,44.5429688 C581.757816,45.792975 582.929679,46.4179688 584.578125,46.4179688 C586.554697,46.4179688 587.898434,45.7421943 588.609375,44.390625 C588.992189,43.6562463 589.183594,42.667975 589.183594,41.4257812 L589.183594,30.7851562 L591.550781,30.7851562 L591.550781,40.453125 C591.550781,42.5703231 591.265628,44.199213 590.695312,45.3398438 C589.648432,47.4179791 587.67189,48.4570312 584.765625,48.4570312 C581.85936,48.4570312 579.886724,47.4179791 578.847656,45.3398438 C578.277341,44.199213 577.992188,42.5703231 577.992188,40.453125 L577.992188,30.7851562 L580.359375,30.7851562 Z" id="U" stroke="url(#linearGradient-2)" fill="url(#linearGradient-3)"></path>
                <rect id="Rectangle-2" stroke="#979797" fill="url(#linearGradient-4)" x="725" y="25" width="251" height="30" rx="8"></rect>
                <path d="M994,54 C1001.1797,54 1007,48.1797017 1007,41 C1007,33.8202983 1001.1797,28 994,28 C986.820298,28 981,33.8202983 981,41 C981,48.1797017 986.820298,54 994,54 Z M994,32.875 L1002.9375,45.875 L985.0625,45.875 L994,32.875 Z" id="Oval-16-Copy-19" stroke="#FCFCFC" stroke-width="1.5" fill="#BBC1CF" transform="translate(994.000000, 41.000000) scale(-1, 1) rotate(-90.000000) translate(-994.000000, -41.000000) "></path>
                <path d="M1025.02637,46.6298828 L1028.875,36.6083984 L1030.30371,36.6083984 L1034.40527,46.6298828 L1032.89453,46.6298828 L1031.72559,43.5947266 L1027.53516,43.5947266 L1026.43457,46.6298828 L1025.02637,46.6298828 Z M1027.91797,42.5146484 L1031.31543,42.5146484 L1030.26953,39.7392578 C1029.95052,38.8961546 1029.71354,38.2034532 1029.55859,37.6611328 C1029.43099,38.3037142 1029.25098,38.9417286 1029.01855,39.5751953 L1027.91797,42.5146484 Z M1035.46484,46.6298828 L1035.46484,36.6083984 L1038.91699,36.6083984 C1039.69629,36.6083984 1040.29101,36.6562495 1040.70117,36.7519531 C1041.27539,36.8841152 1041.7653,37.1233707 1042.1709,37.4697266 C1042.69955,37.9163434 1043.09489,38.4871385 1043.35693,39.1821289 C1043.61898,39.8771194 1043.75,40.6712195 1043.75,41.5644531 C1043.75,42.3255246 1043.66113,42.9999971 1043.4834,43.5878906 C1043.30566,44.1757842 1043.0778,44.6622702 1042.7998,45.0473633 C1042.52181,45.4324564 1042.21761,45.7355132 1041.88721,45.956543 C1041.5568,46.1775727 1041.15804,46.3450515 1040.69092,46.4589844 C1040.22379,46.5729172 1039.68718,46.6298828 1039.08105,46.6298828 L1035.46484,46.6298828 Z M1036.79102,45.4472656 L1038.93066,45.4472656 C1039.59147,45.4472656 1040.10986,45.3857428 1040.48584,45.2626953 C1040.86182,45.1396478 1041.16146,44.9664725 1041.38477,44.7431641 C1041.69922,44.4287094 1041.94417,44.0060248 1042.11963,43.4750977 C1042.29509,42.9441705 1042.38281,42.3004595 1042.38281,41.5439453 C1042.38281,40.495763 1042.21078,39.6902697 1041.8667,39.1274414 C1041.52262,38.5646131 1041.10449,38.187501 1040.6123,37.9960938 C1040.25683,37.8593743 1039.6849,37.7910156 1038.89648,37.7910156 L1036.79102,37.7910156 L1036.79102,45.4472656 Z M1048.43945,46.6298828 L1044.55664,36.6083984 L1045.99219,36.6083984 L1048.59668,43.8886719 C1048.80632,44.4720081 1048.98177,45.0188777 1049.12305,45.5292969 C1049.278,44.9824191 1049.45801,44.4355496 1049.66309,43.8886719 L1052.37012,36.6083984 L1053.72363,36.6083984 L1049.7998,46.6298828 L1048.43945,46.6298828 Z M1052.77344,46.6298828 L1056.62207,36.6083984 L1058.05078,36.6083984 L1062.15234,46.6298828 L1060.6416,46.6298828 L1059.47266,43.5947266 L1055.28223,43.5947266 L1054.18164,46.6298828 L1052.77344,46.6298828 Z M1055.66504,42.5146484 L1059.0625,42.5146484 L1058.0166,39.7392578 C1057.69759,38.8961546 1057.46061,38.2034532 1057.30566,37.6611328 C1057.17806,38.3037142 1056.99805,38.9417286 1056.76562,39.5751953 L1055.66504,42.5146484 Z M1063.19824,46.6298828 L1063.19824,36.6083984 L1064.55859,36.6083984 L1069.82227,44.4765625 L1069.82227,36.6083984 L1071.09375,36.6083984 L1071.09375,46.6298828 L1069.7334,46.6298828 L1064.46973,38.7548828 L1064.46973,46.6298828 L1063.19824,46.6298828 Z M1080.47266,43.1162109 L1081.79883,43.4511719 C1081.52083,44.54037 1081.02067,45.3709281 1080.29834,45.9428711 C1079.57601,46.5148141 1078.69304,46.8007812 1077.64941,46.8007812 C1076.56933,46.8007812 1075.69092,46.5808941 1075.01416,46.1411133 C1074.3374,45.7013324 1073.82243,45.0644573 1073.46924,44.2304688 C1073.11605,43.3964802 1072.93945,42.5009813 1072.93945,41.5439453 C1072.93945,40.5003203 1073.13883,39.5900104 1073.5376,38.8129883 C1073.93636,38.0359662 1074.50374,37.4458028 1075.23975,37.0424805 C1075.97575,36.6391581 1076.7858,36.4375 1077.66992,36.4375 C1078.67253,36.4375 1079.51562,36.6927058 1080.19922,37.203125 C1080.88282,37.7135442 1081.35905,38.4313105 1081.62793,39.3564453 L1080.32227,39.6640625 C1080.08984,38.9348922 1079.75261,38.403973 1079.31055,38.0712891 C1078.86849,37.7386051 1078.3125,37.5722656 1077.64258,37.5722656 C1076.87239,37.5722656 1076.22868,37.7568341 1075.71143,38.1259766 C1075.19417,38.495119 1074.83073,38.9907195 1074.62109,39.612793 C1074.41146,40.2348664 1074.30664,40.8762988 1074.30664,41.5371094 C1074.30664,42.3893272 1074.43083,43.1332976 1074.6792,43.769043 C1074.92757,44.4047883 1075.3138,44.8798812 1075.83789,45.1943359 C1076.36198,45.5087906 1076.92936,45.6660156 1077.54004,45.6660156 C1078.28288,45.6660156 1078.91178,45.4518251 1079.42676,45.0234375 C1079.94173,44.5950499 1080.29036,43.9593141 1080.47266,43.1162109 L1080.47266,43.1162109 Z M1083.45996,46.6298828 L1083.45996,36.6083984 L1090.70605,36.6083984 L1090.70605,37.7910156 L1084.78613,37.7910156 L1084.78613,40.8603516 L1090.33008,40.8603516 L1090.33008,42.0361328 L1084.78613,42.0361328 L1084.78613,45.4472656 L1090.93848,45.4472656 L1090.93848,46.6298828 L1083.45996,46.6298828 Z M1092.77051,46.6298828 L1092.77051,36.6083984 L1096.22266,36.6083984 C1097.00196,36.6083984 1097.59668,36.6562495 1098.00684,36.7519531 C1098.58106,36.8841152 1099.07096,37.1233707 1099.47656,37.4697266 C1100.00521,37.9163434 1100.40055,38.4871385 1100.6626,39.1821289 C1100.92464,39.8771194 1101.05566,40.6712195 1101.05566,41.5644531 C1101.05566,42.3255246 1100.9668,42.9999971 1100.78906,43.5878906 C1100.61133,44.1757842 1100.38346,44.6622702 1100.10547,45.0473633 C1099.82747,45.4324564 1099.52328,45.7355132 1099.19287,45.956543 C1098.86247,46.1775727 1098.46371,46.3450515 1097.99658,46.4589844 C1097.52946,46.5729172 1096.99284,46.6298828 1096.38672,46.6298828 L1092.77051,46.6298828 Z M1094.09668,45.4472656 L1096.23633,45.4472656 C1096.89714,45.4472656 1097.41553,45.3857428 1097.7915,45.2626953 C1098.16748,45.1396478 1098.46712,44.9664725 1098.69043,44.7431641 C1099.00488,44.4287094 1099.24984,44.0060248 1099.42529,43.4750977 C1099.60075,42.9441705 1099.68848,42.3004595 1099.68848,41.5439453 C1099.68848,40.495763 1099.51644,39.6902697 1099.17236,39.1274414 C1098.82829,38.5646131 1098.41016,38.187501 1097.91797,37.9960938 C1097.5625,37.8593743 1096.99056,37.7910156 1096.20215,37.7910156 L1094.09668,37.7910156 L1094.09668,45.4472656 Z M1106.31934,43.4101562 L1107.57031,43.3007812 C1107.62956,43.8020858 1107.76741,44.2133773 1107.98389,44.534668 C1108.20036,44.8559586 1108.53646,45.1157217 1108.99219,45.3139648 C1109.44792,45.512208 1109.96061,45.6113281 1110.53027,45.6113281 C1111.03614,45.6113281 1111.48275,45.5361336 1111.87012,45.3857422 C1112.25749,45.2353508 1112.54573,45.0291354 1112.73486,44.7670898 C1112.92399,44.5050443 1113.01855,44.2190771 1113.01855,43.9091797 C1113.01855,43.594725 1112.92741,43.3201509 1112.74512,43.0854492 C1112.56282,42.8507475 1112.26205,42.6536466 1111.84277,42.4941406 C1111.57389,42.3893224 1110.97917,42.2264008 1110.05859,42.0053711 C1109.13802,41.7843413 1108.49317,41.5758473 1108.12402,41.3798828 C1107.64551,41.1292305 1107.2889,40.8181985 1107.0542,40.4467773 C1106.8195,40.0753562 1106.70215,39.6595075 1106.70215,39.1992188 C1106.70215,38.6933568 1106.8457,38.2205426 1107.13281,37.7807617 C1107.41992,37.3409809 1107.83919,37.0071626 1108.39062,36.7792969 C1108.94206,36.5514312 1109.55501,36.4375 1110.22949,36.4375 C1110.97233,36.4375 1111.62744,36.5571277 1112.19482,36.7963867 C1112.76221,37.0356457 1113.19857,37.387693 1113.50391,37.8525391 C1113.80925,38.3173851 1113.97331,38.8437471 1113.99609,39.4316406 L1112.72461,39.5273438 C1112.65625,38.893877 1112.42497,38.4153662 1112.03076,38.0917969 C1111.63655,37.7682275 1111.05437,37.6064453 1110.28418,37.6064453 C1109.48209,37.6064453 1108.89763,37.7534165 1108.53076,38.0473633 C1108.1639,38.3413101 1107.98047,38.6956359 1107.98047,39.1103516 C1107.98047,39.4703794 1108.11035,39.7666004 1108.37012,39.9990234 C1108.62533,40.2314465 1109.29182,40.4695626 1110.36963,40.7133789 C1111.44743,40.9571952 1112.18685,41.1702465 1112.58789,41.3525391 C1113.17123,41.6214206 1113.60189,41.9620748 1113.87988,42.3745117 C1114.15788,42.7869487 1114.29688,43.2620416 1114.29688,43.7998047 C1114.29688,44.3330105 1114.14421,44.8354469 1113.83887,45.3071289 C1113.53353,45.778811 1113.09489,46.1456693 1112.52295,46.4077148 C1111.95101,46.6697604 1111.3073,46.8007812 1110.5918,46.8007812 C1109.68489,46.8007812 1108.92497,46.6686211 1108.31201,46.4042969 C1107.69905,46.1399726 1107.21826,45.7423529 1106.86963,45.2114258 C1106.52099,44.6804986 1106.33757,44.0800815 1106.31934,43.4101562 L1106.31934,43.4101562 Z M1116.13574,46.6298828 L1116.13574,36.6083984 L1123.38184,36.6083984 L1123.38184,37.7910156 L1117.46191,37.7910156 L1117.46191,40.8603516 L1123.00586,40.8603516 L1123.00586,42.0361328 L1117.46191,42.0361328 L1117.46191,45.4472656 L1123.61426,45.4472656 L1123.61426,46.6298828 L1116.13574,46.6298828 Z M1124.3457,46.6298828 L1128.19434,36.6083984 L1129.62305,36.6083984 L1133.72461,46.6298828 L1132.21387,46.6298828 L1131.04492,43.5947266 L1126.85449,43.5947266 L1125.75391,46.6298828 L1124.3457,46.6298828 Z M1127.2373,42.5146484 L1130.63477,42.5146484 L1129.58887,39.7392578 C1129.26986,38.8961546 1129.03288,38.2034532 1128.87793,37.6611328 C1128.75032,38.3037142 1128.57031,38.9417286 1128.33789,39.5751953 L1127.2373,42.5146484 Z M1134.80469,46.6298828 L1134.80469,36.6083984 L1139.24805,36.6083984 C1140.14128,36.6083984 1140.82031,36.698404 1141.28516,36.878418 C1141.75,37.0584319 1142.12142,37.3762998 1142.39941,37.8320312 C1142.67741,38.2877627 1142.81641,38.7913384 1142.81641,39.3427734 C1142.81641,40.0537145 1142.58627,40.6529924 1142.12598,41.140625 C1141.66569,41.6282576 1140.95476,41.9381504 1139.99316,42.0703125 C1140.34408,42.2389331 1140.61068,42.4052726 1140.79297,42.5693359 C1141.18034,42.9248065 1141.5472,43.369138 1141.89355,43.9023438 L1143.63672,46.6298828 L1141.96875,46.6298828 L1140.64258,44.5449219 C1140.25521,43.9433564 1139.9362,43.4830745 1139.68555,43.1640625 C1139.43489,42.8450505 1139.21045,42.6217454 1139.01221,42.4941406 C1138.81396,42.3665358 1138.61231,42.2776695 1138.40723,42.2275391 C1138.25684,42.1956379 1138.01074,42.1796875 1137.66895,42.1796875 L1136.13086,42.1796875 L1136.13086,46.6298828 L1134.80469,46.6298828 Z M1136.13086,41.03125 L1138.98145,41.03125 C1139.58757,41.03125 1140.06152,40.9685879 1140.40332,40.8432617 C1140.74512,40.7179356 1141.00488,40.5174167 1141.18262,40.2416992 C1141.36035,39.9659817 1141.44922,39.6663428 1141.44922,39.3427734 C1141.44922,38.8688127 1141.27718,38.4791682 1140.93311,38.1738281 C1140.58903,37.8684881 1140.04558,37.7158203 1139.30273,37.7158203 L1136.13086,37.7158203 L1136.13086,41.03125 Z M1152.04492,43.1162109 L1153.37109,43.4511719 C1153.0931,44.54037 1152.59294,45.3709281 1151.87061,45.9428711 C1151.14827,46.5148141 1150.2653,46.8007812 1149.22168,46.8007812 C1148.1416,46.8007812 1147.26319,46.5808941 1146.58643,46.1411133 C1145.90966,45.7013324 1145.3947,45.0644573 1145.0415,44.2304688 C1144.68831,43.3964802 1144.51172,42.5009813 1144.51172,41.5439453 C1144.51172,40.5003203 1144.7111,39.5900104 1145.10986,38.8129883 C1145.50863,38.0359662 1146.07601,37.4458028 1146.81201,37.0424805 C1147.54802,36.6391581 1148.35807,36.4375 1149.24219,36.4375 C1150.2448,36.4375 1151.08789,36.6927058 1151.77148,37.203125 C1152.45508,37.7135442 1152.93131,38.4313105 1153.2002,39.3564453 L1151.89453,39.6640625 C1151.66211,38.9348922 1151.32487,38.403973 1150.88281,38.0712891 C1150.44075,37.7386051 1149.88477,37.5722656 1149.21484,37.5722656 C1148.44466,37.5722656 1147.80095,37.7568341 1147.28369,38.1259766 C1146.76644,38.495119 1146.403,38.9907195 1146.19336,39.612793 C1145.98372,40.2348664 1145.87891,40.8762988 1145.87891,41.5371094 C1145.87891,42.3893272 1146.00309,43.1332976 1146.25146,43.769043 C1146.49984,44.4047883 1146.88607,44.8798812 1147.41016,45.1943359 C1147.93425,45.5087906 1148.50162,45.6660156 1149.1123,45.6660156 C1149.85515,45.6660156 1150.48405,45.4518251 1150.99902,45.0234375 C1151.514,44.5950499 1151.86263,43.9593141 1152.04492,43.1162109 L1152.04492,43.1162109 Z M1155.0459,46.6298828 L1155.0459,36.6083984 L1156.37207,36.6083984 L1156.37207,40.7236328 L1161.58105,40.7236328 L1161.58105,36.6083984 L1162.90723,36.6083984 L1162.90723,46.6298828 L1161.58105,46.6298828 L1161.58105,41.90625 L1156.37207,41.90625 L1156.37207,46.6298828 L1155.0459,46.6298828 Z" id="ADVANCED-SEARCH" fill="#FCFCFC"></path>
                <rect id="Rectangle-4-Copy-2" stroke="#FCFCFC" fill-opacity="0.720000029" fill="#9295D4" x="201" y="18" width="141" height="44" rx="63"></rect>
                <path d="M214.078125,49 L214.078125,31.8203125 L220.558594,31.8203125 C221.699224,31.8203125 222.570309,31.8749995 223.171875,31.984375 C224.015629,32.1250007 224.722653,32.3925762 225.292969,32.7871094 C225.863284,33.1816426 226.322264,33.7343714 226.669922,34.4453125 C227.01758,35.1562536 227.191406,35.9374957 227.191406,36.7890625 C227.191406,38.2500073 226.726567,39.4863231 225.796875,40.4980469 C224.867183,41.5097707 223.187512,42.015625 220.757812,42.015625 L216.351562,42.015625 L216.351562,49 L214.078125,49 Z M216.351562,39.9882812 L220.792969,39.9882812 C222.261726,39.9882812 223.304684,39.7148465 223.921875,39.1679688 C224.539066,38.621091 224.847656,37.8515675 224.847656,36.859375 C224.847656,36.1406214 224.666017,35.5253932 224.302734,35.0136719 C223.939451,34.5019506 223.46094,34.1640633 222.867188,34 C222.484373,33.898437 221.777349,33.8476562 220.746094,33.8476562 L216.351562,33.8476562 L216.351562,39.9882812 Z M231.972656,49 L231.972656,31.8203125 L234.246094,31.8203125 L234.246094,49 L231.972656,49 Z M239.753906,49 L239.753906,31.8203125 L246.234375,31.8203125 C247.375006,31.8203125 248.246091,31.8749995 248.847656,31.984375 C249.69141,32.1250007 250.398435,32.3925762 250.96875,32.7871094 C251.539065,33.1816426 251.998045,33.7343714 252.345703,34.4453125 C252.693361,35.1562536 252.867188,35.9374957 252.867188,36.7890625 C252.867188,38.2500073 252.402348,39.4863231 251.472656,40.4980469 C250.542964,41.5097707 248.863293,42.015625 246.433594,42.015625 L242.027344,42.015625 L242.027344,49 L239.753906,49 Z M242.027344,39.9882812 L246.46875,39.9882812 C247.937507,39.9882812 248.980466,39.7148465 249.597656,39.1679688 C250.214847,38.621091 250.523438,37.8515675 250.523438,36.859375 C250.523438,36.1406214 250.341799,35.5253932 249.978516,35.0136719 C249.615233,34.5019506 249.136722,34.1640633 248.542969,34 C248.160154,33.898437 247.45313,33.8476562 246.421875,33.8476562 L242.027344,33.8476562 L242.027344,39.9882812 Z M257.308594,49 L257.308594,31.8203125 L269.730469,31.8203125 L269.730469,33.8476562 L259.582031,33.8476562 L259.582031,39.109375 L269.085938,39.109375 L269.085938,41.125 L259.582031,41.125 L259.582031,46.9726562 L270.128906,46.9726562 L270.128906,49 L257.308594,49 Z M274.675781,49 L274.675781,31.8203125 L276.949219,31.8203125 L276.949219,46.9726562 L285.410156,46.9726562 L285.410156,49 L274.675781,49 Z M290.003906,49 L290.003906,31.8203125 L292.277344,31.8203125 L292.277344,49 L290.003906,49 Z M297.761719,49 L297.761719,31.8203125 L300.09375,31.8203125 L309.117188,45.3085938 L309.117188,31.8203125 L311.296875,31.8203125 L311.296875,49 L308.964844,49 L299.941406,35.5 L299.941406,49 L297.761719,49 Z M316.664062,49 L316.664062,31.8203125 L329.085938,31.8203125 L329.085938,33.8476562 L318.9375,33.8476562 L318.9375,39.109375 L328.441406,39.109375 L328.441406,41.125 L318.9375,41.125 L318.9375,46.9726562 L329.484375,46.9726562 L329.484375,49 L316.664062,49 Z" id="PIPELINE-Copy" stroke="url(#linearGradient-2)" fill="url(#linearGradient-2)"></path>
            </g>
            <g id="Oval-15-+-Rectangle-11-+-Oval-14-+-Oval-16" transform="translate(1253.000000, 13.000000)" sketch:type="MSShapeGroup">
                <circle id="Oval-15" fill="#9FC2FF" cx="23" cy="23" r="23"></circle>
                <g id="Rectangle-11-+-Oval-14" transform="translate(8.000000, 10.000000)" fill="#4071E3">
                    <path d="M31,29.6717062 L31,29.0073971 C31,24.5781325 27.4167466,21 22.9965796,21 L8.00342045,21 C3.58637817,21 0,24.5850338 0,29.0073971 L0,30.6121624 C4.0660906,33.9779244 9.28020624,36 14.9655172,36 C21.162266,36 26.799231,33.5977582 31,29.6717062 Z" id="Rectangle-11"></path>
                    <circle id="Oval-14" cx="15" cy="9" r="9"></circle>
                </g>
                <circle id="Oval-16" fill="#2DAE00" cx="42" cy="43" r="5"></circle>
            </g>
            <g id="BGK-+-Log-Off-Copy" transform="translate(1257.000000, 29.000000)" font-family="Arial" fill="#FCFCFC" sketch:type="MSTextLayer" font-weight="normal">
                <text id="BGK" font-size="14">
                    <tspan x="46" y="13">BGK</tspan>
                </text>
                <text id="Log-Off" font-size="12">
                    <tspan x="0" y="44">Log Off</tspan>
                </text>
            </g>
        </g>
    </g>
</svg>