<?xml version="1.0" encoding="UTF-8" standalone="no"?>
<svg width="39px" height="13px" viewBox="0 0 39 13" version="1.1" xmlns="http://www.w3.org/2000/svg" xmlns:xlink="http://www.w3.org/1999/xlink" xmlns:sketch="http://www.bohemiancoding.com/sketch/ns">
    <!-- Generator: Sketch 3.3.3 (12072) - http://www.bohemiancoding.com/sketch -->
    <title>NamOn</title>
    <desc>Created with Sketch.</desc>
    <defs></defs>
    <g id="Page-1" stroke="none" stroke-width="1" fill="none" fill-rule="evenodd" sketch:type="MSPage">
        <path d="M0.81640625,13 L0.81640625,0.115234375 L2.56542969,0.115234375 L9.33300781,10.2314453 L9.33300781,0.115234375 L10.9677734,0.115234375 L10.9677734,13 L9.21875,13 L2.45117188,2.875 L2.45117188,13 L0.81640625,13 Z M12.4179688,13 L17.3662109,0.115234375 L19.203125,0.115234375 L24.4765625,13 L22.5341797,13 L21.03125,9.09765625 L15.6435547,9.09765625 L14.2285156,13 L12.4179688,13 Z M16.1357422,7.70898438 L20.5039062,7.70898438 L19.1591797,4.140625 C18.7490214,3.05663521 18.4443369,2.16601911 18.2451172,1.46875 C18.0810539,2.29492601 17.8496109,3.1152303 17.5507812,3.9296875 L16.1357422,7.70898438 Z M25.7861328,13 L25.7861328,0.115234375 L28.3525391,0.115234375 L31.4023438,9.23828125 C31.6835952,10.0878949 31.8886712,10.7236307 32.0175781,11.1455078 C32.1640632,10.6767555 32.3925766,9.98828579 32.703125,9.08007812 L35.7880859,0.115234375 L38.0820312,0.115234375 L38.0820312,13 L36.4384766,13 L36.4384766,2.21582031 L32.6943359,13 L31.15625,13 L27.4296875,2.03125 L27.4296875,13 L25.7861328,13 Z" id="-NAM" fill="#82B9F9" sketch:type="MSShapeGroup"></path>
    </g>
</svg>