<?xml version="1.0" encoding="UTF-8" standalone="no"?>
<svg width="35px" height="35px" viewBox="0 0 35 35" version="1.1" xmlns="http://www.w3.org/2000/svg" xmlns:xlink="http://www.w3.org/1999/xlink" xmlns:sketch="http://www.bohemiancoding.com/sketch/ns">
    <!-- Generator: Sketch 3.3.3 (12072) - http://www.bohemiancoding.com/sketch -->
    <title>Untitled</title>
    <desc>Created with Sketch.</desc>
    <defs></defs>
    <g id="Page-1" stroke="none" stroke-width="1" fill="none" fill-rule="evenodd" sketch:type="MSPage">
        <path d="M26.0249304,21.8133381 L34.7970503,30.5562176 C34.9325308,30.6926728 35.0007584,30.8681152 35.0007584,31.0825448 C35.0007584,31.2979491 34.9325308,31.4724168 34.7970503,31.608872 L31.608872,34.7960756 C31.4519485,34.9520244 31.2774808,35.0299988 31.0825448,35.0299988 C30.8876088,35.0299988 30.7121664,34.9520244 30.5562176,34.7960756 L21.7840977,26.0531961 C19.4458404,27.5542033 16.900951,28.3047069 14.1523534,28.3047069 C10.2526588,28.3047069 6.91925324,26.9206613 4.15311143,24.1525701 C1.38404558,21.3844789 0,18.0510734 0,14.1523534 C0,10.2536335 1.38404558,6.92022792 4.15311143,4.15213675 C6.91925324,1.38404558 10.2526588,0 14.1523534,0 C18.0510734,0 21.3844789,1.38404558 24.1535448,4.15213675 C26.9206613,6.92022792 28.3056815,10.2536335 28.3056815,14.1523534 C28.3056815,16.900951 27.5454311,19.4546126 26.0249304,21.8133381 C26.0249304,21.8133381 27.5454311,19.4546126 26.0249304,21.8133381 L26.0249304,21.8133381 L26.0249304,21.8133381 Z M7.31009991,7.33934031 C5.41922073,9.23021949 4.47378115,11.5012239 4.47378115,14.1523534 C4.47378115,16.803483 5.41922073,19.0754621 7.31009991,20.9653665 C9.20097909,22.8562457 11.4817303,23.8016853 14.1523534,23.8016853 C16.8229766,23.8016853 19.0988544,22.8562457 20.9799867,20.9653665 C22.8611191,19.0754621 23.8016853,16.803483 23.8016853,14.1523534 C23.8016853,11.5012239 22.8611191,9.23021949 20.9799867,7.33934031 C19.0988544,5.44943581 16.8229766,4.50302155 14.1523534,4.50302155 C11.4817303,4.50302155 9.20097909,5.44943581 7.31009991,7.33934031 C7.31009991,7.33934031 9.20097909,5.44943581 7.31009991,7.33934031 L7.31009991,7.33934031 L7.31009991,7.33934031 Z" id="Fill-22" fill="#91A0B8" sketch:type="MSShapeGroup"></path>
    </g>
</svg>