<?xml version="1.0" encoding="UTF-8" standalone="no"?>
<svg width="112px" height="28px" viewBox="0 0 112 28" version="1.1" xmlns="http://www.w3.org/2000/svg" xmlns:xlink="http://www.w3.org/1999/xlink" xmlns:sketch="http://www.bohemiancoding.com/sketch/ns">
    <!-- Generator: Sketch 3.3.3 (12072) - http://www.bohemiancoding.com/sketch -->
    <title>SubmitOn</title>
    <desc>Created with Sketch.</desc>
    <defs></defs>
    <g id="Page-1" stroke="none" stroke-width="1" fill="none" fill-rule="evenodd" sketch:type="MSPage">
        <path d="M0,11.9963702 C0,5.37095791 5.3642604,0 11.9992429,0 L100.000757,0 C106.627756,0 112,5.36555176 112,11.9963702 L112,16.0036298 C112,22.6290421 106.63574,28 100.000757,28 L11.9992429,28 C5.37224403,28 0,22.6344482 0,16.0036298 L0,11.9963702 Z M34.043164,8.11523438 L36.6447265,8.11523438 L36.6447265,15.09375 C36.6447265,16.2011774 36.6769528,16.9189437 36.7414062,17.2470703 C36.8527349,17.7744167 37.117869,18.1977523 37.5368164,18.5170898 C37.9557638,18.8364274 38.5285119,18.9960938 39.2550781,18.9960938 C39.993363,18.9960938 40.5499981,18.8452164 40.925,18.543457 C41.3000018,18.2416977 41.5255855,17.8710959 41.6017578,17.4316406 C41.67793,16.9921853 41.7160156,16.2627004 41.7160156,15.2431641 L41.7160156,8.11523438 L44.3175781,8.11523438 L44.3175781,14.8828125 C44.3175781,16.4296952 44.2472663,17.5224577 44.1066406,18.1611328 C43.9660149,18.7998079 43.7067401,19.338865 43.3288085,19.7783203 C42.950877,20.2177756 42.4455109,20.5678698 41.8126953,20.8286133 C41.1798796,21.0893568 40.353716,21.2197266 39.3341796,21.2197266 C38.1037047,21.2197266 37.1706086,21.0776381 36.5348632,20.793457 C35.8991179,20.5092759 35.3966815,20.140139 35.027539,19.6860352 C34.6583965,19.2319313 34.4152349,18.7558619 34.2980468,18.2578125 C34.1281241,17.5195276 34.043164,16.4296947 34.043164,14.9882812 L34.043164,8.11523438 Z M48.3685546,8.11523438 L53.5189452,8.11523438 C54.5384816,8.11523438 55.2987279,8.15771442 55.7997069,8.24267578 C56.300686,8.32763714 56.7489237,8.50488146 57.1444335,8.77441406 C57.5399433,9.04394666 57.8695298,9.40282979 58.133203,9.85107422 C58.3968762,10.2993186 58.5287108,10.801755 58.5287108,11.3583984 C58.5287108,11.9619171 58.3661148,12.5156225 58.0409179,13.0195312 C57.7157209,13.52344 57.2748074,13.9013659 56.718164,14.1533203 C57.5033241,14.3818371 58.1068337,14.7714816 58.5287108,15.3222656 C58.950588,15.8730496 59.1615233,16.5205041 59.1615233,17.2646484 C59.1615233,17.8505889 59.0252942,18.4204074 58.7528319,18.9741211 C58.4803696,19.5278348 58.108303,19.9702132 57.636621,20.3012695 C57.164939,20.6323259 56.5834018,20.8359371 55.8919921,20.9121094 C55.4583962,20.9589846 54.4125082,20.9882812 52.7542968,21 L48.3685546,21 L48.3685546,8.11523438 Z M62.6236327,21 L62.6236327,8.11523438 L66.5171874,8.11523438 L68.855078,16.9042969 L71.1666014,8.11523438 L75.0689452,8.11523438 L75.0689452,21 L72.651953,21 L72.651953,10.8574219 L70.0943358,21 L67.589453,21 L65.0406249,10.8574219 L65.0406249,21 L62.6236327,21 Z M20.0957031,16.8076172 L22.6269531,16.5615234 C22.7792976,17.4111371 23.0883766,18.0351543 23.5541992,18.4335938 C24.0200219,18.8320332 24.6484335,19.03125 25.4394531,19.03125 C26.2773479,19.03125 26.9086893,18.8540057 27.3334961,18.4995117 C27.7583029,18.1450178 27.9707031,17.7304711 27.9707031,17.2558594 C27.9707031,16.9511704 27.8813485,16.6918956 27.7026367,16.4780273 C27.5239249,16.2641591 27.2119163,16.0781258 26.7666016,15.9199219 C26.4619125,15.8144526 25.7675835,15.6269545 24.6835938,15.3574219 C23.2890555,15.011717 22.3105497,14.5869166 21.7480469,14.0830078 C20.9570273,13.3740199 20.5615234,12.5097707 20.5615234,11.4902344 C20.5615234,10.8339811 20.7475567,10.2202177 21.1196289,9.64892578 C21.4917011,9.07763386 22.0278285,8.64257962 22.7280273,8.34375 C23.4282262,8.04492038 24.2734325,7.89550781 25.2636719,7.89550781 C26.8808675,7.89550781 28.0981404,8.24999646 28.9155273,8.95898438 C29.7329142,9.66797229 30.1621092,10.6142519 30.203125,11.7978516 L27.6015625,11.9121094 C27.4902338,11.2499967 27.2514667,10.7739272 26.8852539,10.4838867 C26.5190411,10.1938462 25.9697302,10.0488281 25.2373047,10.0488281 C24.4814415,10.0488281 23.8896506,10.2041 23.4619141,10.5146484 C23.1865221,10.7138682 23.0488281,10.9804671 23.0488281,11.3144531 C23.0488281,11.6191421 23.1777331,11.8798817 23.4355469,12.0966797 C23.7636735,12.3720717 24.5605405,12.6591782 25.8261719,12.9580078 C27.0918032,13.2568374 28.027829,13.5659164 28.6342773,13.8852539 C29.2407257,14.2045914 29.7153303,14.6411105 30.0581055,15.1948242 C30.4008806,15.7485379 30.5722656,16.4326131 30.5722656,17.2470703 C30.5722656,17.9853553 30.3671896,18.6767546 29.9570312,19.3212891 C29.5468729,19.9658235 28.9668006,20.4448227 28.2167969,20.7583008 C27.4667931,21.0717789 26.5322322,21.2285156 25.4130859,21.2285156 C23.7841715,21.2285156 22.5332075,20.8520545 21.6601562,20.0991211 C20.787105,19.3461876 20.2656258,18.2490306 20.0957031,16.8076172 Z M78.8738279,21 L78.8738279,8.11523438 L81.4753904,8.11523438 L81.4753904,21 L78.8738279,21 Z M88.1542966,21 L88.1542966,10.2949219 L84.3310544,10.2949219 L84.3310544,8.11523438 L94.5703123,8.11523438 L94.5703123,10.2949219 L90.7558591,10.2949219 L90.7558591,21 L88.1542966,21 Z M50.9701171,10.2597656 L50.9701171,13.2392578 L52.6751952,13.2392578 C53.6888722,13.2392578 54.3187487,13.2246095 54.5648437,13.1953125 C55.0101584,13.1425779 55.3602525,12.9887708 55.6151366,12.7338867 C55.8700207,12.4790026 55.9974608,12.1435568 55.9974608,11.7275391 C55.9974608,11.3290996 55.8875987,11.0053723 55.667871,10.7563477 C55.4481433,10.507323 55.1214864,10.3564456 54.6878905,10.3037109 C54.4300767,10.2744139 53.6888732,10.2597656 52.4642577,10.2597656 L50.9701171,10.2597656 Z M50.9701171,15.3837891 L50.9701171,18.8291016 L53.3783202,18.8291016 C54.3158249,18.8291016 54.9105455,18.8027346 55.1624999,18.75 C55.5492206,18.6796871 55.8641588,18.5083021 56.1073241,18.2358398 C56.3504894,17.9633775 56.4720702,17.5986351 56.4720702,17.1416016 C56.4720702,16.7548809 56.3783212,16.4267592 56.1908202,16.1572266 C56.0033193,15.887694 55.7323259,15.6914069 55.3778319,15.5683594 C55.023338,15.4453119 54.2543027,15.3837891 53.070703,15.3837891 L50.9701171,15.3837891 Z" id="Rectangle-5-Copy-2" fill="#82B9F9" sketch:type="MSShapeGroup"></path>
    </g>
</svg>