<?xml version="1.0" encoding="UTF-8" standalone="no"?>
<svg width="111px" height="31px" viewBox="0 0 111 31" version="1.1" xmlns="http://www.w3.org/2000/svg" xmlns:xlink="http://www.w3.org/1999/xlink" xmlns:sketch="http://www.bohemiancoding.com/sketch/ns">
    <!-- Generator: Sketch 3.3.3 (12072) - http://www.bohemiancoding.com/sketch -->
    <title>Untitled</title>
    <desc>Created with Sketch.</desc>
    <defs></defs>
    <g id="Page-1" stroke="none" stroke-width="1" fill="none" fill-rule="evenodd" sketch:type="MSPage">
        <g id="SubmitOn" sketch:type="MSLayerGroup" transform="translate(14.000000, 8.000000)" fill="#9B9B9B">
            <g id="Page-1" sketch:type="MSShapeGroup">
                <g id="-SUBMIT-+-Rectangle-5-Copy-2">
                    <path d="M0.405383063,10.0555027 L3.0986582,9.80238472 C3.26075427,10.6762488 3.58961733,11.3180773 4.08525725,11.7278894 C4.58089717,12.1377015 5.24953344,12.3426045 6.09118613,12.3426045 C6.98271453,12.3426045 7.65446799,12.1603011 8.10646665,11.7956889 C8.55846532,11.4310766 8.78446126,11.0046976 8.78446126,10.516539 C8.78446126,10.2031533 8.68938711,9.93647809 8.49923594,9.7165054 C8.30908478,9.49653272 7.97710453,9.30518949 7.50328524,9.14246997 C7.1790931,9.03399029 6.44032015,8.84114042 5.28694425,8.56391457 C3.80314173,8.20834228 2.7620018,7.7714168 2.16349322,7.25312499 C1.32184053,6.52390048 0.901020501,5.6349831 0.901020501,4.5863462 C0.901020501,3.91136152 1.09896178,3.28007952 1.49485026,2.69248126 C1.89073875,2.10488299 2.46118368,1.65741102 3.20620217,1.35005193 C3.95122066,1.04269284 4.85052866,0.889015597 5.90415313,0.889015597 C7.62486529,0.889015597 8.92005584,1.25362238 9.78976361,1.9828469 C10.6594714,2.71207141 11.1161391,3.68536061 11.1597803,4.90274368 L8.39169197,5.02026275 C8.27323715,4.33925142 8.01918654,3.84959355 7.62953252,3.55127443 C7.23987849,3.25295531 6.65540623,3.10379799 5.87609818,3.10379799 C5.07185228,3.10379799 4.44218083,3.26350179 3.98706493,3.58291418 C3.6940451,3.78782024 3.54753739,4.06202865 3.54753739,4.40554763 C3.54753739,4.71893338 3.68469355,4.98711523 3.95900998,5.21010124 C4.30813998,5.49335373 5.15601442,5.7886551 6.50265872,6.09601419 C7.84930302,6.40337329 8.84524376,6.72127425 9.49051082,7.04972661 C10.1357779,7.37817897 10.6407619,7.82715758 11.0054781,8.3966759 C11.3701942,8.96619422 11.5525496,9.66979492 11.5525496,10.5074991 C11.5525496,11.2668569 11.3343466,11.9779908 10.8979341,12.6409221 C10.4615216,13.3038535 9.84431889,13.7965247 9.04630746,14.1189504 C8.24829602,14.4413761 7.25391387,14.6025866 6.06313118,14.6025866 C4.32995009,14.6025866 2.99891191,14.2153802 2.06997672,13.4409558 C1.14104153,12.6665314 0.586182529,11.5380583 0.405383063,10.0555027 L0.405383063,10.0555027 Z M15.1699756,1.1150138 L17.9380639,1.1150138 L17.9380639,8.29271673 C17.9380639,9.43175336 17.9723529,10.1700068 18.0409321,10.5074991 C18.1593869,11.0498975 18.4414922,11.4853164 18.8872564,11.8137687 C19.3330206,12.1422211 19.9424303,12.3064448 20.7155039,12.3064448 C21.5010464,12.3064448 22.0933116,12.1512609 22.4923173,11.8408885 C22.8913231,11.5305161 23.1313463,11.1493363 23.2123944,10.6973376 C23.2934424,10.2453389 23.3339658,9.49503241 23.3339658,8.4463955 L23.3339658,1.1150138 L26.1020542,1.1150138 L26.1020542,8.07575845 C26.1020542,9.66679375 26.0272417,10.7907469 25.8776146,11.4476516 C25.7279874,12.1045564 25.4521165,12.6589997 25.0499936,13.1109984 C24.6478706,13.5629971 24.1101561,13.9230839 23.436834,14.1912698 C22.7635118,14.4594557 21.8844655,14.5935466 20.7996687,14.5935466 C19.4904312,14.5935466 18.4976077,14.4474026 17.8211683,14.1551101 C17.1447289,13.8628176 16.6101316,13.4831445 16.2173603,13.0160792 C15.8245891,12.5490139 15.5658627,12.059356 15.4411734,11.5470908 C15.260374,10.7877331 15.1699756,9.66679321 15.1699756,8.18423759 L15.1699756,1.1150138 Z M30.336689,1.1150138 L35.8167558,1.1150138 C36.9015526,1.1150138 37.7104622,1.15870635 38.2435089,1.24609276 C38.7765556,1.33347917 39.253485,1.51578256 39.6743113,1.79300841 C40.0951377,2.07023426 40.445821,2.43936096 40.7263719,2.9003996 C41.0069228,3.36143824 41.1471962,3.87821563 41.1471962,4.45074728 C41.1471962,5.07149211 40.9741924,5.64100189 40.6281796,6.15929369 C40.2821668,6.67758549 39.8130304,7.06629851 39.2207563,7.32544442 C40.0561745,7.56048372 40.6983147,7.96124986 41.1471962,8.52775486 C41.5960776,9.09425985 41.8205149,9.76019456 41.8205149,10.525579 C41.8205149,11.1282439 41.6755658,11.7143267 41.3856632,12.283845 C41.0957606,12.8533633 40.6998781,13.3083685 40.1980037,13.6488741 C39.6961293,13.9893798 39.077368,14.1988027 38.3417012,14.2771491 C37.8803509,14.3253623 36.7675157,14.3554951 35.0031623,14.3675484 L30.336689,14.3675484 L30.336689,1.1150138 Z M33.1047774,3.32075626 L33.1047774,6.38529189 L34.9189974,6.38529189 C35.9975597,6.38529189 36.6677546,6.3702255 36.9296021,6.34009225 C37.4034214,6.28585241 37.7759251,6.12765525 38.0471243,5.86549603 C38.3183235,5.6033368 38.453921,5.25831633 38.453921,4.83042426 C38.453921,4.42061213 38.3370266,4.08764478 38.1032342,3.8315122 C37.8694418,3.57537962 37.5218756,3.42019574 37.0605252,3.3659559 C36.7862088,3.33582266 35.9975609,3.32075626 34.6945578,3.32075626 L33.1047774,3.32075626 Z M33.1047774,8.59103435 L33.1047774,12.1346862 L35.6671294,12.1346862 C36.6646437,12.1346862 37.2974323,12.1075667 37.5655143,12.0533268 C37.9769889,11.981007 38.3120864,11.8047302 38.5708167,11.524491 C38.8295469,11.2442519 38.9589101,10.8690986 38.9589101,10.39902 C38.9589101,10.0012612 38.8591602,9.66377388 38.6596573,9.38654803 C38.4601545,9.10932218 38.1718148,8.90743247 37.7946297,8.78087284 C37.4174446,8.65431322 36.5991835,8.59103435 35.3398217,8.59103435 L33.1047774,8.59103435 Z M45.4285893,14.3675484 L45.4285893,1.1150138 L49.5713701,1.1150138 L52.058909,10.1549419 L54.5183929,1.1150138 L58.6705254,1.1150138 L58.6705254,14.3675484 L56.0988217,14.3675484 L56.0988217,3.93547137 L53.3774916,14.3675484 L50.7122714,14.3675484 L48.000293,3.93547137 L48.000293,14.3675484 L45.4285893,14.3675484 Z M62.643314,14.3675484 L62.643314,1.1150138 L65.4114024,1.1150138 L65.4114024,14.3675484 L62.643314,14.3675484 Z M72.4421805,14.3675484 L72.4421805,3.35691597 L68.3742129,3.35691597 L68.3742129,1.1150138 L79.2688848,1.1150138 L79.2688848,3.35691597 L75.2102688,3.35691597 L75.2102688,14.3675484 L72.4421805,14.3675484 Z" id="SUBMIT"></path>
                </g>
            </g>
        </g>
        <path d="M98.6831942,29.2528947 L12.1798561,29.2528947 C6.03093525,29.2528947 1,24.2792105 1,18.2002632 L1,12.0526316 C1,5.97368421 6.03093525,1 12.1798561,1 L98.6831942,1 C104.832115,1 109.86305,5.97368421 109.86305,12.0526316 L109.86305,18.2002632 C109.86305,24.2792105 104.832115,29.2528947 98.6831942,29.2528947 L98.6831942,29.2528947 Z" id="Imported-Layers" stroke="#9B9B9B" stroke-width="2" sketch:type="MSShapeGroup"></path>
    </g>
</svg>